<?xml version="1.0" encoding="UTF-8"?>
<svg xmlns="http://www.w3.org/2000/svg" xmlns:xlink="http://www.w3.org/1999/xlink" width="100px" height="100px" viewBox="0 0 100 100" version="1.1">
<g id="surface1">
<path style=" stroke:none;fill-rule:nonzero;fill:rgb(0%,0%,0%);fill-opacity:1;" d="M 50.046875 8.3125 C 27.058594 8.3125 8.390625 26.980469 8.390625 49.96875 C 8.390625 72.960938 27.058594 91.628906 50.046875 91.628906 C 73.042969 91.628906 91.703125 72.960938 91.703125 49.96875 C 91.703125 26.980469 73.042969 8.3125 50.046875 8.3125 Z M 50.046875 14.5625 C 69.59375 14.5625 85.453125 30.429688 85.453125 49.96875 C 85.453125 69.511719 69.59375 85.378906 50.046875 85.378906 C 30.507812 85.378906 14.640625 69.511719 14.640625 49.96875 C 14.640625 30.429688 30.507812 14.5625 50.046875 14.5625 Z M 56.414062 34.210938 C 56.414062 34.210938 62.675781 40.476562 69.976562 47.789062 C 70.589844 48.402344 70.890625 49.199219 70.890625 50 C 70.890625 50.800781 70.589844 51.597656 69.976562 52.210938 C 62.675781 59.515625 56.421875 65.785156 56.421875 65.785156 C 55.816406 66.386719 55.023438 66.6875 54.226562 66.6875 C 53.429688 66.683594 52.628906 66.378906 52.015625 65.765625 C 50.796875 64.546875 50.789062 62.574219 52 61.363281 L 60.242188 53.125 L 32.351562 53.125 C 30.625 53.125 29.226562 51.726562 29.226562 50 C 29.226562 48.273438 30.625 46.875 32.351562 46.875 L 60.242188 46.875 L 51.996094 38.628906 C 50.789062 37.425781 50.804688 35.453125 52.023438 34.238281 C 52.632812 33.625 53.433594 33.316406 54.234375 33.3125 C 55.023438 33.3125 55.816406 33.609375 56.414062 34.210938 Z M 56.414062 34.210938 "/>
</g>
</svg>
