<?xml version="1.0" encoding="UTF-8"?>
<svg xmlns="http://www.w3.org/2000/svg" xmlns:xlink="http://www.w3.org/1999/xlink" width="100px" height="100px" viewBox="0 0 100 100" version="1.1">
<g id="surface1">
<path style=" stroke:none;fill-rule:nonzero;fill:rgb(0%,0%,0%);fill-opacity:1;" d="M 50.03125 8.332031 C 27.039062 8.332031 8.371094 27 8.371094 49.992188 C 8.371094 72.976562 27.039062 91.644531 50.03125 91.644531 C 73.019531 91.644531 91.6875 72.976562 91.6875 49.992188 C 91.6875 27 73.019531 8.332031 50.03125 8.332031 Z M 56.375 34.210938 C 56.375 34.210938 62.632812 40.476562 69.9375 47.789062 C 70.550781 48.402344 70.855469 49.199219 70.855469 50 C 70.855469 50.800781 70.550781 51.597656 69.9375 52.210938 C 62.632812 59.515625 56.378906 65.785156 56.378906 65.785156 C 55.773438 66.386719 54.984375 66.6875 54.1875 66.6875 C 53.390625 66.683594 52.585938 66.378906 51.976562 65.765625 C 50.757812 64.546875 50.75 62.574219 51.960938 61.363281 L 60.199219 53.125 L 32.3125 53.125 C 30.589844 53.125 29.1875 51.726562 29.1875 50 C 29.1875 48.273438 30.589844 46.875 32.3125 46.875 L 60.199219 46.875 L 51.957031 38.628906 C 50.75 37.425781 50.761719 35.453125 51.984375 34.238281 C 52.59375 33.625 53.394531 33.316406 54.191406 33.3125 C 54.984375 33.3125 55.773438 33.609375 56.375 34.210938 Z M 56.375 34.210938 "/>
</g>
</svg>
