<?xml version="1.0" encoding="UTF-8"?>
<svg xmlns="http://www.w3.org/2000/svg" xmlns:xlink="http://www.w3.org/1999/xlink" width="100px" height="100px" viewBox="0 0 100 100" version="1.1">
<g id="surface1">
<path style=" stroke:none;fill-rule:nonzero;fill:rgb(0%,0%,0%);fill-opacity:1;" d="M 50.046875 8.332031 C 73.042969 8.332031 91.703125 27 91.703125 49.992188 C 91.703125 72.976562 73.042969 91.644531 50.046875 91.644531 C 27.058594 91.644531 8.390625 72.976562 8.390625 49.992188 C 8.390625 27 27.058594 8.332031 50.046875 8.332031 Z M 43.703125 34.210938 C 43.703125 34.210938 37.445312 40.476562 30.140625 47.789062 C 29.527344 48.402344 29.226562 49.199219 29.226562 50 C 29.226562 50.800781 29.527344 51.597656 30.140625 52.210938 C 37.445312 59.515625 43.703125 65.785156 43.703125 65.785156 C 44.304688 66.386719 45.09375 66.6875 45.890625 66.6875 C 46.691406 66.683594 47.492188 66.378906 48.101562 65.765625 C 49.320312 64.546875 49.328125 62.574219 48.117188 61.363281 L 39.878906 53.125 L 67.765625 53.125 C 69.492188 53.125 70.890625 51.726562 70.890625 50 C 70.890625 48.273438 69.492188 46.875 67.765625 46.875 L 39.878906 46.875 L 48.121094 38.628906 C 49.328125 37.425781 49.316406 35.453125 48.09375 34.238281 C 47.484375 33.625 46.683594 33.316406 45.890625 33.3125 C 45.09375 33.3125 44.304688 33.609375 43.703125 34.210938 Z M 43.703125 34.210938 "/>
</g>
</svg>
