<?xml version="1.0" encoding="UTF-8"?>
<svg xmlns="http://www.w3.org/2000/svg" xmlns:xlink="http://www.w3.org/1999/xlink" width="100px" height="100px" viewBox="0 0 100 100" version="1.1">
<g id="surface1">
<path style=" stroke:none;fill-rule:nonzero;fill:rgb(0%,0%,0%);fill-opacity:1;" d="M 91.667969 25 C 91.667969 22.699219 89.800781 20.832031 87.5 20.832031 L 34.882812 20.832031 C 33.0625 20.832031 31.328125 21.628906 30.140625 23.011719 C 25.648438 28.246094 14.261719 41.507812 9.339844 47.242188 C 8.671875 48.019531 8.332031 48.988281 8.332031 49.953125 C 8.332031 50.914062 8.667969 51.882812 9.332031 52.664062 C 14.253906 58.414062 25.648438 71.726562 30.140625 76.980469 C 31.328125 78.367188 33.0625 79.167969 34.890625 79.167969 L 87.5 79.167969 C 89.800781 79.167969 91.667969 77.300781 91.667969 75 C 91.667969 64.261719 91.667969 35.738281 91.667969 25 Z M 34.882812 27.082031 L 85.417969 27.082031 L 85.417969 72.917969 L 34.890625 72.917969 L 15.246094 49.957031 Z M 58.371094 45.53125 L 65.496094 38.402344 C 66.101562 37.796875 66.910156 37.492188 67.707031 37.492188 C 69.390625 37.492188 70.832031 38.84375 70.832031 40.613281 C 70.832031 41.414062 70.53125 42.210938 69.921875 42.824219 L 62.789062 49.953125 L 69.992188 57.152344 C 70.601562 57.765625 70.90625 58.566406 70.90625 59.363281 C 70.90625 61.140625 69.453125 62.492188 67.78125 62.492188 C 66.984375 62.492188 66.183594 62.1875 65.570312 61.578125 L 58.371094 54.375 L 51.171875 61.578125 C 50.5625 62.1875 49.757812 62.492188 48.957031 62.492188 C 47.289062 62.492188 45.832031 61.140625 45.832031 59.363281 C 45.832031 58.566406 46.136719 57.765625 46.75 57.152344 L 53.949219 49.953125 L 46.5 42.507812 C 45.890625 41.890625 45.589844 41.097656 45.589844 40.289062 C 45.589844 38.519531 47.027344 37.171875 48.714844 37.171875 C 49.515625 37.171875 50.316406 37.476562 50.925781 38.082031 Z M 58.371094 45.53125 "/>
</g>
</svg>
