<?xml version="1.0" encoding="UTF-8"?>
<svg xmlns="http://www.w3.org/2000/svg" xmlns:xlink="http://www.w3.org/1999/xlink" width="100px" height="100px" viewBox="0 0 100 100" version="1.1">
<g id="surface1">
<path style=" stroke:none;fill-rule:nonzero;fill:rgb(0%,0%,0%);fill-opacity:1;" d="M 91.667969 25.007812 C 91.667969 22.707031 89.800781 20.84375 87.5 20.84375 L 34.882812 20.84375 C 33.0625 20.84375 31.328125 21.636719 30.140625 23.019531 C 25.648438 28.253906 14.261719 41.515625 9.339844 47.253906 C 8.671875 48.03125 8.332031 48.996094 8.332031 49.964844 C 8.332031 50.929688 8.667969 51.898438 9.332031 52.675781 C 14.253906 58.425781 25.648438 71.738281 30.140625 76.992188 C 31.328125 78.378906 33.0625 79.175781 34.890625 79.175781 L 87.5 79.175781 C 89.800781 79.175781 91.667969 77.3125 91.667969 75.007812 C 91.667969 64.269531 91.667969 35.746094 91.667969 25.007812 Z M 58.371094 45.542969 L 65.496094 38.414062 C 66.101562 37.804688 66.910156 37.5 67.707031 37.5 C 69.390625 37.5 70.832031 38.851562 70.832031 40.621094 C 70.832031 41.429688 70.53125 42.222656 69.921875 42.835938 L 62.789062 49.964844 L 69.992188 57.164062 C 70.601562 57.777344 70.90625 58.574219 70.90625 59.375 C 70.90625 61.15625 69.453125 62.5 67.78125 62.5 C 66.984375 62.5 66.183594 62.195312 65.570312 61.585938 L 58.371094 54.386719 L 51.171875 61.585938 C 50.5625 62.195312 49.757812 62.5 48.957031 62.5 C 47.289062 62.5 45.832031 61.15625 45.832031 59.375 C 45.832031 58.574219 46.136719 57.777344 46.75 57.164062 L 53.949219 49.964844 L 46.5 42.515625 C 45.890625 41.90625 45.589844 41.109375 45.589844 40.304688 C 45.589844 38.53125 47.027344 37.179688 48.714844 37.179688 C 49.515625 37.179688 50.316406 37.484375 50.925781 38.089844 Z M 58.371094 45.542969 "/>
</g>
</svg>
