<?xml version="1.0" encoding="UTF-8" standalone="no"?>
<svg
   xmlns:dc="http://purl.org/dc/elements/1.1/"
   xmlns:cc="http://creativecommons.org/ns#"
   xmlns:rdf="http://www.w3.org/1999/02/22-rdf-syntax-ns#"
   xmlns:svg="http://www.w3.org/2000/svg"
   xmlns="http://www.w3.org/2000/svg"
   xmlns:sodipodi="http://sodipodi.sourceforge.net/DTD/sodipodi-0.dtd"
   xmlns:inkscape="http://www.inkscape.org/namespaces/inkscape"
   width="24"
   height="24"
   viewBox="0 0 24 24"
   version="1.1"
   id="svg5"
   sodipodi:docname="blogger-4_w24.svg"
   inkscape:version="1.0.2 (e86c870879, 2021-01-15)">
  <metadata
     id="metadata11">
    <rdf:RDF>
      <cc:Work
         rdf:about="">
        <dc:format>image/svg+xml</dc:format>
        <dc:type
           rdf:resource="http://purl.org/dc/dcmitype/StillImage" />
        <dc:title></dc:title>
      </cc:Work>
    </rdf:RDF>
  </metadata>
  <defs
     id="defs9" />
  <sodipodi:namedview
     pagecolor="#ffffff"
     bordercolor="#666666"
     borderopacity="1"
     objecttolerance="10"
     gridtolerance="10"
     guidetolerance="10"
     inkscape:pageopacity="0"
     inkscape:pageshadow="2"
     inkscape:window-width="1920"
     inkscape:window-height="1053"
     id="namedview7"
     showgrid="false"
     fit-margin-top="0"
     fit-margin-left="0"
     fit-margin-right="0"
     fit-margin-bottom="0"
     inkscape:zoom="8.62"
     inkscape:cx="50"
     inkscape:cy="50"
     inkscape:window-x="0"
     inkscape:window-y="27"
     inkscape:window-maximized="1"
     inkscape:current-layer="svg5" />
  <g
     id="surface1"
     transform="scale(0.24)">
    <path
       style="fill:#000000;fill-opacity:1;fill-rule:nonzero;stroke:none"
       d="m 64.582031,60.9375 c 0,2.015625 -1.609375,3.644531 -3.597656,3.644531 h -21.96875 c -1.992187,0 -3.597656,-1.632812 -3.597656,-3.644531 0,-2.011719 1.609375,-3.644531 3.597656,-3.644531 h 21.964844 c 1.992187,0 3.601562,1.628906 3.601562,3.644531 z M 38.785156,42.707031 H 49.0625 c 1.867188,0 3.371094,-1.632812 3.371094,-3.644531 0,-2.011719 -1.503906,-3.644531 -3.375,-3.644531 H 38.785156 c -1.863281,0 -3.367187,1.632812 -3.367187,3.644531 0,2.011719 1.503906,3.644531 3.367187,3.644531 z M 100,50 C 100,77.613281 77.613281,100 50,100 22.386719,100 0,77.613281 0,50 0,22.386719 22.386719,0 50,0 77.613281,0 100,22.386719 100,50 Z M 79.167969,45.671875 c 0,-1.597656 -1.296875,-2.882813 -2.882813,-2.882813 h -4.738281 c -2.429687,0 -2.875,-1.859374 -2.875,-4.152343 -0.0039,-9.832031 -7.960937,-17.804688 -17.769531,-17.804688 H 38.601562 c -9.816406,0 -17.769531,7.972657 -17.769531,17.800781 v 22.730469 c 0,9.832031 7.953125,17.804688 17.769531,17.804688 h 22.808594 c 9.804688,0 17.757813,-7.972657 17.757813,-17.800781 z m 0,0"
       id="path2" />
  </g>
</svg>
