<?xml version="1.0" encoding="UTF-8"?>
<svg xmlns="http://www.w3.org/2000/svg" xmlns:xlink="http://www.w3.org/1999/xlink" width="100px" height="100px" viewBox="0 0 100 100" version="1.1">
<g id="surface1">
<path style=" stroke:none;fill-rule:nonzero;fill:rgb(0%,0%,0%);fill-opacity:1;" d="M 64.582031 60.9375 C 64.582031 62.953125 62.972656 64.582031 60.984375 64.582031 L 39.015625 64.582031 C 37.023438 64.582031 35.417969 62.949219 35.417969 60.9375 C 35.417969 58.925781 37.027344 57.292969 39.015625 57.292969 L 60.980469 57.292969 C 62.972656 57.292969 64.582031 58.921875 64.582031 60.9375 Z M 38.785156 42.707031 L 49.0625 42.707031 C 50.929688 42.707031 52.433594 41.074219 52.433594 39.0625 C 52.433594 37.050781 50.929688 35.417969 49.058594 35.417969 L 38.785156 35.417969 C 36.921875 35.417969 35.417969 37.050781 35.417969 39.0625 C 35.417969 41.074219 36.921875 42.707031 38.785156 42.707031 Z M 100 50 C 100 77.613281 77.613281 100 50 100 C 22.386719 100 0 77.613281 0 50 C 0 22.386719 22.386719 0 50 0 C 77.613281 0 100 22.386719 100 50 Z M 79.167969 45.671875 C 79.167969 44.074219 77.871094 42.789062 76.285156 42.789062 L 71.546875 42.789062 C 69.117188 42.789062 68.671875 40.929688 68.671875 38.636719 C 68.667969 28.804688 60.710938 20.832031 50.902344 20.832031 L 38.601562 20.832031 C 28.785156 20.832031 20.832031 28.804688 20.832031 38.632812 L 20.832031 61.363281 C 20.832031 71.195312 28.785156 79.167969 38.601562 79.167969 L 61.410156 79.167969 C 71.214844 79.167969 79.167969 71.195312 79.167969 61.367188 Z M 79.167969 45.671875 "/>
</g>
</svg>
