<?xml version="1.0" encoding="UTF-8"?>
<svg xmlns="http://www.w3.org/2000/svg" xmlns:xlink="http://www.w3.org/1999/xlink" width="100px" height="100px" viewBox="0 0 100 100" version="1.1">
<g id="surface1">
<path style=" stroke:none;fill-rule:nonzero;fill:rgb(0%,0%,0%);fill-opacity:1;" d="M 91.667969 50.007812 C 91.667969 27.023438 73 8.355469 50.007812 8.355469 C 27.023438 8.355469 8.355469 27.023438 8.355469 50.007812 C 8.355469 73 27.023438 91.667969 50.007812 91.667969 C 73 91.667969 91.667969 73 91.667969 50.007812 Z M 57.453125 29.828125 C 58.042969 29.378906 58.703125 29.175781 59.351562 29.175781 C 60.972656 29.175781 62.5 30.449219 62.5 32.296875 L 62.5 67.71875 C 62.5 69.570312 60.972656 70.84375 59.351562 70.84375 C 58.703125 70.84375 58.039062 70.632812 57.453125 70.179688 C 50.972656 65.164062 39.953125 56.628906 34.539062 52.4375 C 33.773438 51.84375 33.332031 50.9375 33.332031 49.96875 C 33.332031 49.015625 33.78125 48.101562 34.546875 47.507812 Z M 57.453125 29.828125 "/>
</g>
</svg>
