<?xml version="1.0" encoding="UTF-8"?>
<svg xmlns="http://www.w3.org/2000/svg" xmlns:xlink="http://www.w3.org/1999/xlink" width="100px" height="100px" viewBox="0 0 100 100" version="1.1">
<g id="surface1">
<path style=" stroke:none;fill-rule:nonzero;fill:rgb(0%,0%,0%);fill-opacity:1;" d="M 91.667969 50.007812 C 91.667969 27.023438 73 8.355469 50.007812 8.355469 C 27.023438 8.355469 8.355469 27.023438 8.355469 50.007812 C 8.355469 73 27.023438 91.667969 50.007812 91.667969 C 73 91.667969 91.667969 73 91.667969 50.007812 Z M 85.417969 50.007812 C 85.417969 69.550781 69.550781 85.417969 50.007812 85.417969 C 30.464844 85.417969 14.605469 69.550781 14.605469 50.007812 C 14.605469 30.464844 30.464844 14.605469 50.007812 14.605469 C 69.550781 14.605469 85.417969 30.464844 85.417969 50.007812 Z M 57.453125 29.820312 C 58.042969 29.371094 58.703125 29.167969 59.351562 29.167969 C 60.972656 29.167969 62.5 30.441406 62.5 32.289062 L 62.5 67.707031 C 62.5 69.5625 60.972656 70.832031 59.351562 70.832031 C 58.703125 70.832031 58.039062 70.625 57.453125 70.171875 C 50.972656 65.160156 39.953125 56.621094 34.539062 52.429688 C 33.773438 51.839844 33.332031 50.929688 33.332031 49.964844 C 33.332031 49.003906 33.78125 48.089844 34.546875 47.5 Z M 56.25 61.335938 L 56.25 38.644531 L 41.574219 49.96875 Z M 56.25 61.335938 "/>
</g>
</svg>
