<?xml version="1.0" encoding="UTF-8"?>
<svg xmlns="http://www.w3.org/2000/svg" xmlns:xlink="http://www.w3.org/1999/xlink" width="100px" height="100px" viewBox="0 0 100 100" version="1.1">
<g id="surface1">
<path style=" stroke:none;fill-rule:nonzero;fill:rgb(0%,0%,0%);fill-opacity:1;" d="M 41.839844 70.832031 L 23.089844 52.835938 L 28.898438 46.859375 L 41.734375 59.097656 L 70.984375 29.167969 L 76.910156 35.035156 Z M 20.832031 8.332031 C 13.941406 8.332031 8.332031 13.941406 8.332031 20.832031 L 8.332031 79.167969 C 8.332031 86.058594 13.941406 91.667969 20.832031 91.667969 L 79.167969 91.667969 C 86.058594 91.667969 91.667969 86.058594 91.667969 79.167969 L 91.667969 20.832031 C 91.667969 13.941406 86.058594 8.332031 79.167969 8.332031 Z M 100 20.832031 L 100 79.167969 C 100 90.671875 90.671875 100 79.167969 100 L 20.832031 100 C 9.328125 100 0 90.671875 0 79.167969 L 0 20.832031 C 0 9.328125 9.328125 0 20.832031 0 L 79.167969 0 C 90.671875 0 100 9.328125 100 20.832031 Z M 100 20.832031 "/>
</g>
</svg>
