<?xml version="1.0" encoding="UTF-8"?>
<svg xmlns="http://www.w3.org/2000/svg" xmlns:xlink="http://www.w3.org/1999/xlink" width="100px" height="100px" viewBox="0 0 100 100" version="1.1">
<g id="surface1">
<path style=" stroke:none;fill-rule:nonzero;fill:rgb(0%,0%,0%);fill-opacity:1;" d="M 50 20.832031 C 64.386719 20.832031 74.546875 32.488281 73.195312 49.085938 C 80.464844 48.890625 91.667969 52.210938 91.667969 64.582031 C 91.667969 72.625 85.125 79.167969 77.082031 79.167969 L 22.917969 79.167969 C 14.875 79.167969 8.332031 72.625 8.332031 64.582031 C 8.332031 52.929688 18.664062 48.613281 26.804688 49.085938 C 26.109375 31.507812 36.003906 20.832031 50 20.832031 Z M 50 12.5 C 33.308594 12.5 19.722656 25.589844 18.835938 42.050781 C 8.128906 43.980469 0 53.324219 0 64.582031 C 0 77.234375 10.265625 87.5 22.917969 87.5 L 77.082031 87.5 C 89.734375 87.5 100 77.234375 100 64.582031 C 100 53.324219 91.871094 43.980469 81.164062 42.050781 C 80.277344 25.589844 66.691406 12.5 50 12.5 Z M 45.832031 70.832031 L 29.167969 63.746094 L 29.167969 57.082031 L 45.832031 50 L 45.832031 56.527344 L 36.546875 60.417969 L 45.832031 64.292969 Z M 54.167969 50 L 54.167969 56.527344 L 63.453125 60.417969 L 54.167969 64.292969 L 54.167969 70.832031 L 70.832031 63.746094 L 70.832031 57.082031 Z M 54.167969 50 "/>
</g>
</svg>
