<?xml version="1.0" encoding="UTF-8"?>
<svg xmlns="http://www.w3.org/2000/svg" xmlns:xlink="http://www.w3.org/1999/xlink" width="100px" height="100px" viewBox="0 0 100 100" version="1.1">
<g id="surface1">
<path style=" stroke:none;fill-rule:evenodd;fill:rgb(0%,0%,0%);fill-opacity:1;" d="M 100 50 L 50 100 L 0 50 L 50 0 Z M 11.78125 50 L 50 88.21875 L 88.21875 50 L 50 11.78125 Z M 69.695312 65.355469 L 50.945312 65.355469 L 57.296875 58.367188 L 47.828125 50.445312 L 45.09375 48.160156 L 48.160156 53.714844 C 48.320312 54.007812 48.414062 54.332031 48.4375 54.664062 L 49.054688 64.109375 C 49.085938 64.664062 48.707031 65.355469 47.824219 65.355469 C 47.25 65.355469 46.75 64.964844 46.621094 64.398438 L 44.734375 56.3125 L 44.46875 55.8125 L 40.195312 51.292969 C 40.195312 51.292969 35.8125 61.710938 34.628906 64.613281 C 34.453125 65.046875 34.046875 65.355469 33.460938 65.355469 C 32.738281 65.355469 32.195312 64.757812 32.195312 64.097656 C 32.195312 63.875 34.925781 50.710938 35.824219 45.914062 C 35.933594 45.335938 36.203125 44.796875 36.59375 44.351562 L 38.277344 42.453125 L 32.804688 37.871094 C 32.011719 37.210938 33.019531 36.007812 33.808594 36.675781 L 35.3125 37.929688 L 37.222656 34.105469 C 37.429688 33.703125 37.816406 33.460938 38.273438 33.414062 C 40.40625 33.21875 44.898438 32.886719 46.753906 32.765625 C 47.609375 32.707031 48.242188 32.835938 48.785156 33.390625 L 53.140625 37.765625 C 53.53125 38.15625 53.753906 38.6875 53.75 39.242188 L 53.746094 53.359375 L 58.34375 57.210938 L 62.59375 52.53125 C 63.519531 51.515625 65.191406 51.851562 65.628906 53.15625 Z M 46.015625 46.890625 L 48.832031 49.246094 L 51.882812 51.800781 L 50.226562 42.503906 Z M 36.703125 39.097656 L 39.316406 41.285156 L 43.675781 36.367188 L 39.410156 36.078125 Z M 54.914062 27.855469 C 57.023438 27.855469 58.734375 29.566406 58.734375 31.679688 C 58.734375 33.785156 57.023438 35.5 54.914062 35.5 C 52.804688 35.5 51.089844 33.785156 51.089844 31.679688 C 51.089844 29.566406 52.804688 27.855469 54.914062 27.855469 Z M 54.914062 27.855469 "/>
</g>
</svg>
