<?xml version="1.0" encoding="UTF-8"?>
<svg xmlns="http://www.w3.org/2000/svg" xmlns:xlink="http://www.w3.org/1999/xlink" width="100px" height="100px" viewBox="0 0 100 100" version="1.1">
<g id="surface1">
<path style=" stroke:none;fill-rule:nonzero;fill:rgb(0%,0%,0%);fill-opacity:1;" d="M 23.046875 87.5 C 19.59375 87.5 16.796875 90.296875 16.796875 93.75 C 16.796875 97.203125 19.59375 100 23.046875 100 L 77.082031 100 C 80.53125 100 83.332031 97.203125 83.332031 93.75 C 83.332031 90.296875 80.53125 87.5 77.082031 87.5 Z M 62.5 16.667969 L 54.167969 16.667969 L 54.167969 25 L 45.832031 25 L 45.832031 16.667969 L 37.5 16.667969 L 37.5 8.332031 L 45.832031 8.332031 L 45.832031 0 L 54.167969 0 L 54.167969 8.332031 L 62.5 8.332031 Z M 100 50.519531 C 100 63.933594 91.273438 72.394531 83.332031 79.167969 L 16.667969 79.167969 C 8.726562 72.394531 0 63.933594 0 50.519531 C 0 33.253906 12.523438 25.023438 25.199219 25.023438 C 33.03125 25.023438 39.78125 27.796875 45.054688 33.160156 C 43.390625 35.53125 41.726562 39.558594 41.425781 42.375 C 37.378906 37.066406 32.132812 33.355469 25.199219 33.355469 C 22.382812 33.355469 8.332031 34.183594 8.332031 50.519531 C 8.332031 58.574219 12.496094 64.289062 19.792969 70.832031 L 80.207031 70.832031 C 87.503906 64.289062 91.667969 58.574219 91.667969 50.519531 C 91.667969 34.183594 77.617188 33.355469 74.800781 33.355469 C 61.386719 33.355469 54.171875 47.308594 50 59.984375 C 47.132812 51.375 48.765625 41.757812 53.429688 34.890625 C 58.898438 28.414062 66.1875 25.023438 74.800781 25.023438 C 87.476562 25.023438 100 33.253906 100 50.519531 Z M 100 50.519531 "/>
</g>
</svg>
