<?xml version="1.0" encoding="UTF-8"?>
<svg xmlns="http://www.w3.org/2000/svg" xmlns:xlink="http://www.w3.org/1999/xlink" width="100px" height="100px" viewBox="0 0 100 100" version="1.1">
<g id="surface1">
<path style=" stroke:none;fill-rule:nonzero;fill:rgb(0%,0%,0%);fill-opacity:1;" d="M 50 0 C 22.386719 0 0 22.386719 0 50 C 0 77.613281 22.386719 100 50 100 C 77.613281 100 100 77.613281 100 50 C 100 22.386719 77.613281 0 50 0 Z M 70.832031 70.832031 L 29.167969 70.832031 L 29.167969 62.5 L 70.832031 62.5 Z M 72.617188 41.265625 C 70.902344 42.058594 70.832031 44.007812 70.832031 45.789062 L 70.832031 58.332031 L 29.167969 58.332031 L 29.167969 45.789062 C 29.167969 44.007812 29.097656 42.054688 27.382812 41.265625 C 25.96875 40.613281 25 39.15625 25 37.5 C 25 35.199219 26.867188 33.332031 29.167969 33.332031 C 32.292969 33.332031 34.710938 36.84375 32.496094 39.988281 C 31.378906 41.570312 31.648438 42.523438 32.40625 43.632812 C 33.996094 45.980469 36.304688 47.917969 39.582031 47.917969 C 44.835938 47.917969 47.613281 43.574219 48.1875 39.898438 C 48.390625 38.621094 48.5 37.664062 47.28125 36.476562 C 46.441406 35.660156 45.832031 34.59375 45.832031 33.332031 C 45.832031 31.03125 47.699219 29.167969 50 29.167969 C 52.300781 29.167969 54.167969 31.03125 54.167969 33.332031 C 54.167969 34.59375 53.558594 35.660156 52.71875 36.476562 C 51.496094 37.664062 51.609375 38.621094 51.808594 39.898438 C 52.386719 43.574219 55.164062 47.917969 60.414062 47.917969 C 63.691406 47.917969 66 45.980469 67.59375 43.628906 C 68.351562 42.523438 68.617188 41.566406 67.503906 39.984375 C 65.289062 36.84375 67.707031 33.332031 70.832031 33.332031 C 73.132812 33.332031 75 35.199219 75 37.5 C 75 39.15625 74.03125 40.613281 72.617188 41.265625 Z M 72.617188 41.265625 "/>
</g>
</svg>
