<?xml version="1.0" encoding="UTF-8"?>
<svg xmlns="http://www.w3.org/2000/svg" xmlns:xlink="http://www.w3.org/1999/xlink" width="100px" height="100px" viewBox="0 0 100 100" version="1.1">
<g id="surface1">
<path style=" stroke:none;fill-rule:nonzero;fill:rgb(0%,0%,0%);fill-opacity:1;" d="M 75 64.257812 L 75 68.355469 C 75 71.566406 67.242188 74.171875 58.332031 74.171875 C 49.421875 74.171875 41.667969 71.566406 41.667969 68.355469 L 41.667969 64.257812 C 45.699219 67.152344 53.335938 68.015625 58.332031 68.015625 C 63.34375 68.015625 70.980469 67.152344 75 64.257812 Z M 58.332031 58.578125 C 53.324219 58.578125 45.6875 57.707031 41.667969 54.820312 L 41.667969 58.875 C 41.667969 62.085938 49.421875 64.691406 58.332031 64.691406 C 67.242188 64.691406 75 62.085938 75 58.875 L 75 54.820312 C 70.96875 57.71875 63.328125 58.578125 58.332031 58.578125 Z M 58.332031 34.164062 C 49.421875 34.164062 41.667969 36.765625 41.667969 39.976562 C 41.667969 43.1875 49.421875 45.789062 58.332031 45.789062 C 67.242188 45.789062 75 43.1875 75 39.976562 C 75 36.765625 67.242188 34.164062 58.332031 34.164062 Z M 58.332031 49.125 C 53.324219 49.125 45.6875 48.253906 41.667969 45.367188 L 41.667969 49.4375 C 41.667969 52.648438 49.421875 55.25 58.332031 55.25 C 67.242188 55.25 75 52.648438 75 49.4375 L 75 45.367188 C 70.96875 48.261719 63.328125 49.125 58.332031 49.125 Z M 56.25 8.332031 C 34.214844 8.332031 16.046875 24.640625 13.011719 45.832031 L 0 45.832031 L 16.667969 70.488281 L 33.332031 45.832031 L 21.46875 45.832031 C 24.433594 29.28125 38.863281 16.667969 56.25 16.667969 C 75.777344 16.667969 91.667969 32.554688 91.667969 52.082031 C 91.667969 71.609375 75.777344 87.5 56.25 87.5 C 43.6875 87.5 32.660156 80.902344 26.371094 71.011719 L 21.371094 78.40625 C 29.351562 88.976562 41.988281 95.832031 56.25 95.832031 C 80.40625 95.832031 100 76.242188 100 52.082031 C 100 27.925781 80.40625 8.332031 56.25 8.332031 Z M 56.25 8.332031 "/>
</g>
</svg>
