<?xml version="1.0" encoding="UTF-8"?>
<svg xmlns="http://www.w3.org/2000/svg" xmlns:xlink="http://www.w3.org/1999/xlink" width="100px" height="100px" viewBox="0 0 100 100" version="1.1">
<g id="surface1">
<path style=" stroke:none;fill-rule:nonzero;fill:rgb(0%,0%,0%);fill-opacity:1;" d="M 50 8.332031 C 72.976562 8.332031 91.667969 27.023438 91.667969 50 C 91.667969 72.976562 72.976562 91.667969 50 91.667969 C 27.023438 91.667969 8.332031 72.976562 8.332031 50 C 8.332031 27.023438 27.023438 8.332031 50 8.332031 Z M 50 0 C 22.386719 0 0 22.386719 0 50 C 0 77.613281 22.386719 100 50 100 C 77.613281 100 100 77.613281 100 50 C 100 22.386719 77.613281 0 50 0 Z M 33.359375 54.015625 L 46.296875 66.953125 L 29.167969 70.832031 Z M 75 38.332031 L 50.667969 63.003906 L 37.324219 49.664062 L 61.664062 25 Z M 75 38.332031 "/>
</g>
</svg>
