<?xml version="1.0" encoding="UTF-8"?>
<svg xmlns="http://www.w3.org/2000/svg" xmlns:xlink="http://www.w3.org/1999/xlink" width="100px" height="100px" viewBox="0 0 100 100" version="1.1">
<g id="surface1">
<path style=" stroke:none;fill-rule:nonzero;fill:rgb(0%,0%,0%);fill-opacity:1;" d="M 50 8.414062 C 72.976562 8.414062 91.667969 27.109375 91.667969 50.082031 C 91.667969 73.058594 72.976562 91.75 50 91.75 C 27.023438 91.75 8.332031 73.058594 8.332031 50.082031 C 8.332031 27.109375 27.023438 8.414062 50 8.414062 Z M 50 0.0820312 C 22.386719 0.0820312 0 22.46875 0 50.082031 C 0 77.695312 22.386719 100.082031 50 100.082031 C 77.613281 100.082031 100 77.695312 100 50.082031 C 100 22.46875 77.613281 0.0820312 50 0.0820312 Z M 50 52.375 L 25.035156 33.332031 L 74.964844 33.332031 Z M 50 57.742188 L 25 38.453125 L 25 66.667969 L 75 66.667969 L 75 38.453125 Z M 50 57.742188 "/>
</g>
</svg>
