<?xml version="1.0" encoding="UTF-8"?>
<svg xmlns="http://www.w3.org/2000/svg" xmlns:xlink="http://www.w3.org/1999/xlink" width="100px" height="100px" viewBox="0 0 100 100" version="1.1">
<g id="surface1">
<path style=" stroke:none;fill-rule:nonzero;fill:rgb(0%,0%,0%);fill-opacity:1;" d="M 50 8.332031 C 72.976562 8.332031 91.667969 27.023438 91.667969 50 C 91.667969 72.976562 72.976562 91.667969 50 91.667969 C 27.023438 91.667969 8.332031 72.976562 8.332031 50 C 8.332031 27.023438 27.023438 8.332031 50 8.332031 Z M 50 0 C 22.386719 0 0 22.386719 0 50 C 0 77.613281 22.386719 100 50 100 C 77.613281 100 100 77.613281 100 50 C 100 22.386719 77.613281 0 50 0 Z M 67.929688 47.144531 C 67.898438 47.1875 64.773438 52.929688 64.296875 53.828125 C 63.78125 54.78125 62.234375 54.578125 62.234375 53.335938 L 62.234375 31.148438 C 62.234375 27.652344 56.621094 27.757812 56.621094 31.148438 L 56.621094 49.074219 C 56.621094 50.054688 54.734375 50.03125 54.734375 49.074219 L 54.722656 27.734375 C 54.722656 25.894531 53.242188 25 51.75 25 C 50.238281 25 48.714844 25.925781 48.714844 27.734375 L 48.714844 48.832031 C 48.714844 49.804688 46.890625 49.847656 46.890625 48.855469 L 46.890625 30.875 C 46.890625 27.289062 40.742188 27.1875 40.742188 30.875 L 40.742188 49.921875 C 40.742188 50.890625 38.773438 50.894531 38.773438 49.921875 L 38.773438 38.066406 C 38.773438 34.828125 33.34375 34.644531 33.34375 38.234375 L 33.332031 65.265625 C 33.335938 71.457031 36.800781 75 43.363281 75 L 55.589844 75 C 61.828125 75 64.015625 71.476562 65.75 67.945312 C 67.398438 64.578125 74.085938 51.398438 74.605469 50.171875 C 74.878906 49.570312 75 49.015625 75 48.5 C 75 45.125 69.683594 43.804688 67.929688 47.144531 Z M 67.929688 47.144531 "/>
</g>
</svg>
