<?xml version="1.0" encoding="UTF-8" standalone="no"?>
<svg
   xmlns:dc="http://purl.org/dc/elements/1.1/"
   xmlns:cc="http://creativecommons.org/ns#"
   xmlns:rdf="http://www.w3.org/1999/02/22-rdf-syntax-ns#"
   xmlns:svg="http://www.w3.org/2000/svg"
   xmlns="http://www.w3.org/2000/svg"
   xmlns:sodipodi="http://sodipodi.sourceforge.net/DTD/sodipodi-0.dtd"
   xmlns:inkscape="http://www.inkscape.org/namespaces/inkscape"
   width="24"
   height="23.408213"
   viewBox="0 0 24 23.408213"
   version="1.1"
   id="svg5"
   sodipodi:docname="github-1_w24.svg"
   inkscape:version="1.0.2 (e86c870879, 2021-01-15)">
  <metadata
     id="metadata11">
    <rdf:RDF>
      <cc:Work
         rdf:about="">
        <dc:format>image/svg+xml</dc:format>
        <dc:type
           rdf:resource="http://purl.org/dc/dcmitype/StillImage" />
        <dc:title></dc:title>
      </cc:Work>
    </rdf:RDF>
  </metadata>
  <defs
     id="defs9" />
  <sodipodi:namedview
     pagecolor="#ffffff"
     bordercolor="#666666"
     borderopacity="1"
     objecttolerance="10"
     gridtolerance="10"
     guidetolerance="10"
     inkscape:pageopacity="0"
     inkscape:pageshadow="2"
     inkscape:window-width="1920"
     inkscape:window-height="1053"
     id="namedview7"
     showgrid="false"
     fit-margin-top="0"
     fit-margin-left="0"
     fit-margin-right="0"
     fit-margin-bottom="0"
     inkscape:zoom="8.62"
     inkscape:cx="50"
     inkscape:cy="50"
     inkscape:window-x="0"
     inkscape:window-y="27"
     inkscape:window-maximized="1"
     inkscape:current-layer="svg5"
     inkscape:document-rotation="0" />
  <g
     id="surface1"
     transform="scale(0.24)">
    <path
       style="fill:#000000;fill-opacity:1;fill-rule:nonzero;stroke:none"
       d="M 50,0 C 22.390625,0 0,22.386719 0,50 0,72.09375 14.328125,90.832031 34.195312,97.445312 36.691406,97.90625 37.5,96.359375 37.5,95.042969 v -9.308594 c -13.910156,3.023437 -16.804688,-5.898437 -16.804688,-5.898437 -2.273437,-5.78125 -5.554687,-7.320313 -5.554687,-7.320313 -4.539063,-3.105469 0.347656,-3.035156 0.347656,-3.035156 5.019531,0.347656 7.660157,5.152343 7.660157,5.152343 4.460937,7.640626 11.699218,5.433594 14.550781,4.152344 0.449219,-3.226562 1.742187,-5.433594 3.175781,-6.679687 -11.105469,-1.273438 -22.78125,-5.558594 -22.78125,-24.714844 0,-5.460937 1.953125,-9.921875 5.152344,-13.421875 -0.515625,-1.261719 -2.230469,-6.347656 0.488281,-13.230469 0,0 4.199219,-1.339843 13.753906,5.125 C 41.476562,24.753906 45.75,24.199219 50,24.179688 c 4.25,0.01953 8.53125,0.574218 12.523438,1.683593 9.546874,-6.464843 13.738281,-5.125 13.738281,-5.125 2.722656,6.886719 1.007812,11.972657 0.492187,13.230469 3.210938,3.5 5.144532,7.964844 5.144532,13.421875 0,19.207031 -11.695313,23.433594 -22.828126,24.671875 C 60.863281,73.613281 62.5,76.65625 62.5,81.320312 v 13.722657 c 0,1.328125 0.800781,2.890625 3.335938,2.398437 C 85.691406,90.820312 100,72.082031 100,50 100,22.386719 77.613281,0 50,0 Z m 0,0"
       id="path2" />
  </g>
</svg>
