<?xml version="1.0" encoding="UTF-8"?>
<svg xmlns="http://www.w3.org/2000/svg" xmlns:xlink="http://www.w3.org/1999/xlink" width="100px" height="100px" viewBox="0 0 100 100" version="1.1">
<g id="surface1">
<path style=" stroke:none;fill-rule:nonzero;fill:rgb(0%,0%,0%);fill-opacity:1;" d="M 50 0 C 22.390625 0 0 22.386719 0 50 C 0 72.09375 14.328125 90.832031 34.195312 97.445312 C 36.691406 97.90625 37.5 96.359375 37.5 95.042969 L 37.5 85.734375 C 23.589844 88.757812 20.695312 79.835938 20.695312 79.835938 C 18.421875 74.054688 15.140625 72.515625 15.140625 72.515625 C 10.601562 69.410156 15.488281 69.480469 15.488281 69.480469 C 20.507812 69.828125 23.148438 74.632812 23.148438 74.632812 C 27.609375 82.273438 34.847656 80.066406 37.699219 78.785156 C 38.148438 75.558594 39.441406 73.351562 40.875 72.105469 C 29.769531 70.832031 18.09375 66.546875 18.09375 47.390625 C 18.09375 41.929688 20.046875 37.46875 23.246094 33.96875 C 22.730469 32.707031 21.015625 27.621094 23.734375 20.738281 C 23.734375 20.738281 27.933594 19.398438 37.488281 25.863281 C 41.476562 24.753906 45.75 24.199219 50 24.179688 C 54.25 24.199219 58.53125 24.753906 62.523438 25.863281 C 72.070312 19.398438 76.261719 20.738281 76.261719 20.738281 C 78.984375 27.625 77.269531 32.710938 76.753906 33.96875 C 79.964844 37.46875 81.898438 41.933594 81.898438 47.390625 C 81.898438 66.597656 70.203125 70.824219 59.070312 72.0625 C 60.863281 73.613281 62.5 76.65625 62.5 81.320312 L 62.5 95.042969 C 62.5 96.371094 63.300781 97.933594 65.835938 97.441406 C 85.691406 90.820312 100 72.082031 100 50 C 100 22.386719 77.613281 0 50 0 Z M 50 0 "/>
</g>
</svg>
