<?xml version="1.0" encoding="UTF-8"?>
<svg xmlns="http://www.w3.org/2000/svg" xmlns:xlink="http://www.w3.org/1999/xlink" width="100px" height="100px" viewBox="0 0 100 100" version="1.1">
<g id="surface1">
<path style=" stroke:none;fill-rule:nonzero;fill:rgb(0%,0%,0%);fill-opacity:1;" d="M 50 8.332031 C 72.976562 8.332031 91.667969 27.023438 91.667969 50 C 91.667969 72.976562 72.976562 91.667969 50 91.667969 C 27.023438 91.667969 8.332031 72.976562 8.332031 50 C 8.332031 27.023438 27.023438 8.332031 50 8.332031 Z M 50 0 C 22.386719 0 0 22.386719 0 50 C 0 77.613281 22.386719 100 50 100 C 77.613281 100 100 77.613281 100 50 C 100 22.386719 77.613281 0 50 0 Z M 50 25 C 36.195312 25 25 36.191406 25 50 C 25 61.046875 32.164062 70.417969 42.101562 73.71875 C 43.351562 73.953125 43.75 73.179688 43.75 72.515625 L 43.75 67.859375 C 36.796875 69.375 35.347656 64.917969 35.347656 64.917969 C 34.210938 62.027344 32.570312 61.257812 32.570312 61.257812 C 30.304688 59.703125 32.742188 59.734375 32.742188 59.734375 C 35.253906 59.914062 36.574219 62.316406 36.574219 62.316406 C 38.804688 66.136719 42.421875 65.035156 43.851562 64.398438 C 44.074219 62.777344 44.722656 61.679688 45.4375 61.054688 C 39.882812 60.421875 34.050781 58.273438 34.050781 48.703125 C 34.050781 45.972656 35.023438 43.742188 36.625 41.992188 C 36.367188 41.355469 35.507812 38.808594 36.867188 35.367188 C 36.867188 35.367188 38.96875 34.695312 43.742188 37.929688 C 45.738281 37.375 47.875 37.101562 50 37.085938 C 52.125 37.09375 54.261719 37.375 56.261719 37.929688 C 61.039062 34.695312 63.128906 35.367188 63.128906 35.367188 C 64.492188 38.808594 63.632812 41.355469 63.378906 41.984375 C 64.984375 43.734375 65.949219 45.960938 65.949219 48.691406 C 65.949219 58.296875 60.101562 60.40625 54.535156 61.023438 C 55.433594 61.800781 56.25 63.320312 56.25 65.65625 L 56.25 72.511719 C 56.25 73.179688 56.648438 73.957031 57.917969 73.714844 C 67.847656 70.40625 75 61.042969 75 50 C 75 36.191406 63.804688 25 50 25 Z M 50 25 "/>
</g>
</svg>
