<?xml version="1.0" encoding="UTF-8"?>
<svg xmlns="http://www.w3.org/2000/svg" xmlns:xlink="http://www.w3.org/1999/xlink" width="100px" height="100px" viewBox="0 0 100 100" version="1.1">
<g id="surface1">
<path style=" stroke:none;fill-rule:nonzero;fill:rgb(0%,0%,0%);fill-opacity:1;" d="M 50 0 C 22.386719 0 0 22.386719 0 50 C 0 77.613281 22.386719 100 50 100 C 77.613281 100 100 77.613281 100 50 C 100 22.386719 77.613281 0 50 0 Z M 89.863281 37.90625 C 89.617188 37.664062 89.332031 37.457031 89.003906 37.335938 C 87.929688 36.910156 83.378906 39.847656 82.691406 38.402344 C 82.242188 37.4375 81.328125 39.015625 80.28125 38.433594 C 79.78125 38.15625 78.371094 36.265625 77.738281 36.496094 C 76.4375 36.960938 79.734375 40.554688 80.628906 41.023438 C 81.476562 40.382812 84.210938 39.070312 84.804688 40.863281 C 85.933594 44.246094 81.699219 47.953125 79.539062 49.90625 C 76.308594 52.835938 76.910156 48.015625 74.710938 46.324219 C 73.554688 45.4375 73.566406 43.546875 72.394531 42.890625 C 71.875 42.59375 69.480469 39.839844 69.503906 39.46875 L 69.433594 40.164062 C 69.039062 40.464844 68.195312 39.039062 68.101562 38.8125 C 68.101562 40.054688 70.125 42.027344 70.796875 43.023438 C 71.933594 44.730469 72.546875 47.210938 73.945312 48.601562 C 74.691406 49.351562 77.554688 52.453125 78.300781 52.386719 L 82.140625 50.566406 C 84.839844 51.207031 75.757812 64.054688 74.894531 65.648438 C 74.183594 66.984375 75.476562 70.277344 75.371094 71.851562 C 75.25 73.675781 73.8125 74.265625 72.453125 75.257812 C 70.996094 76.320312 71.335938 78.390625 70.113281 79.148438 C 67.941406 80.488281 66.375 84.839844 63.285156 84.820312 C 62.371094 84.816406 58.484375 86.335938 57.976562 84.851562 C 57.582031 83.773438 57.050781 82.953125 56.496094 81.890625 C 55.949219 80.851562 56.433594 79.765625 55.765625 78.84375 C 55.308594 78.203125 53.773438 76.753906 53.628906 75.996094 C 53.621094 75.34375 54.121094 73.363281 54.808594 73.015625 C 55.773438 72.523438 54.992188 71.089844 54.875 70.253906 C 54.675781 68.765625 53.75 67.535156 52.648438 66.675781 C 51.007812 65.417969 51.859375 64.417969 52.234375 62.617188 C 52.234375 61.757812 51.710938 60.632812 50.5625 60.96875 C 48.1875 61.65625 48.914062 59.109375 47.179688 59.226562 C 45.933594 59.316406 44.917969 60.109375 43.757812 60.460938 C 42.304688 60.890625 40.8125 60.113281 39.371094 59.933594 C 33.449219 59.1875 31.515625 52.417969 33.0625 47.535156 C 33.21875 46.734375 32.582031 45.253906 32.859375 44.632812 C 33.523438 43.167969 34.882812 41.5 36.0625 40.378906 C 36.726562 39.746094 37.582031 39.90625 38.367188 39.417969 C 39.574219 38.65625 39.59375 37.09375 40.773438 36.128906 C 42.457031 34.761719 44.757812 34.792969 46.949219 34.496094 C 48.121094 34.339844 52.574219 33.378906 53.273438 34.246094 C 53.273438 34.410156 54.078125 36.792969 53.195312 36.65625 C 55.023438 36.75 57.617188 39.804688 59.34375 39.09375 C 60.234375 38.71875 59.90625 35.992188 61.734375 37.3125 C 62.835938 38.101562 67.777344 38.460938 68.796875 37.605469 C 69.433594 37.082031 69.78125 33.691406 69.019531 33.308594 C 69.507812 33.792969 66.445312 33.828125 66.164062 33.71875 C 65.65625 33.539062 65.183594 34.199219 64.371094 33.824219 C 64.859375 34.054688 61.65625 32.335938 63.453125 31.015625 C 62.699219 31.566406 62 30.863281 61.1875 31.46875 C 60.625 31.921875 61.445312 32.222656 60.648438 32.625 C 59.375 33.273438 58.414062 30.417969 57.941406 30.09375 C 57.453125 29.773438 53.675781 27.125 54.703125 28.855469 L 58.023438 32.15625 C 57.859375 32.265625 57.152344 30.953125 57.152344 31.910156 C 57.375 31.34375 57.234375 34.351562 56.714844 33.371094 C 56.484375 32.996094 57.09375 32.789062 56.742188 32.242188 C 56.742188 31.886719 55.785156 31.539062 55.59375 31.292969 C 55.070312 30.636719 53.671875 29.199219 52.914062 28.855469 C 52.703125 28.753906 49.699219 29.222656 49.445312 29.316406 C 49.148438 29.730469 48.898438 30.164062 48.691406 30.625 C 48.070312 30.855469 47.484375 31.15625 46.929688 31.527344 L 46.265625 33.007812 C 45.984375 33.261719 43.050781 34.234375 43.03125 34.269531 C 43.160156 33.953125 40.984375 33.554688 41.128906 32.921875 C 41.285156 32.222656 42.023438 30.058594 41.832031 29.265625 C 41.632812 28.4375 46.355469 30.460938 46.65625 28.273438 C 46.78125 27.328125 46.851562 26.226562 45.34375 26.0625 C 45.628906 26.097656 48.265625 25.023438 48.703125 24.546875 C 49.320312 23.84375 50.730469 22.683594 51.75 22.683594 C 52.941406 22.683594 52.6875 20.945312 53.234375 20.09375 C 53.785156 20.3125 52.9375 21.675781 53.601562 22.222656 C 53.558594 21.792969 55.476562 22.464844 55.660156 22.363281 C 56.097656 22.128906 58.539062 22.265625 58.160156 21.117188 C 57.742188 19.953125 58.378906 20.296875 58.925781 20.054688 C 58.84375 20.085938 59.957031 18.148438 60.4375 18.15625 C 60.003906 17.78125 58.78125 18.621094 58.289062 18.585938 C 57.003906 18.484375 57.546875 16.398438 58.03125 15.785156 C 58.40625 15.300781 57.007812 14.710938 56.992188 15.632812 C 56.96875 17.015625 55.683594 18.273438 55.980469 20.113281 C 56.433594 22.886719 52.882812 19.441406 52.578125 19.632812 C 51.398438 20.347656 50.433594 18.734375 51.046875 17.765625 C 51.667969 16.769531 53.171875 16.820312 53.792969 15.761719 C 54.226562 15.015625 54.734375 14.140625 55.40625 13.578125 C 57.664062 11.6875 58.277344 13.199219 60.53125 13.402344 C 62.71875 13.601562 61.273438 13.925781 60.96875 14.765625 C 60.671875 15.566406 62.171875 15.855469 62.6875 15.183594 C 62.984375 14.800781 63.65625 13.824219 63.941406 13.101562 C 64.234375 12.375 66.351562 12.269531 66.136719 11.585938 C 77.46875 16.367188 86.25 26.019531 89.863281 37.90625 Z M 43.558594 22.164062 L 43.84375 21.800781 L 44.144531 21.722656 C 44.320312 21.578125 44.503906 21.226562 44.773438 21.285156 C 44.953125 21.324219 45.382812 21.683594 45.238281 21.90625 C 45.082031 22.128906 44.964844 21.699219 44.898438 22.324219 C 44.824219 23.03125 44.117188 23.019531 43.597656 23.25 C 43.234375 23.402344 42.867188 23.171875 43.21875 22.816406 L 43.585938 22.367188 Z M 45.398438 23.183594 C 45.589844 22.996094 45.972656 23.148438 46.03125 22.789062 C 46.085938 22.441406 46.355469 22.050781 45.996094 21.398438 C 45.902344 21.21875 46.480469 21.054688 46.207031 20.824219 L 45.753906 20.960938 C 45.753906 20.960938 46.398438 18.171875 47.269531 19.433594 L 46.898438 19.863281 C 47.464844 20.421875 47.617188 21.820312 47.796875 22.726562 C 48.324219 23 49.144531 23.050781 48.203125 23.523438 C 48.691406 23.441406 45.628906 24.835938 45.226562 24.265625 C 44.925781 23.921875 46.546875 23.6875 46.503906 23.546875 C 46.488281 23.5 45.183594 23.460938 45.398438 23.183594 Z M 51.359375 8.402344 L 49.875 9.761719 C 48.375 11.003906 44.539062 13.441406 42.40625 12.699219 C 40.21875 11.949219 35.542969 15.476562 34.796875 15.503906 C 34.515625 15.515625 34.804688 12.835938 36.296875 12.632812 C 35.707031 12.71875 40.433594 10.238281 41.234375 9.28125 C 44.058594 8.671875 46.988281 8.332031 50 8.332031 Z M 30.164062 13.363281 C 30.460938 13.703125 31.324219 13.746094 30.058594 14.5625 C 29.296875 15.023438 28.484375 17.933594 27.777344 17.933594 C 25.648438 18.863281 25.515625 16.101562 23.15625 19.652344 C 22.828125 20.132812 21.507812 20.3125 20.472656 20.636719 C 23.324219 17.769531 26.585938 15.308594 30.164062 13.363281 Z M 8.332031 50 C 8.332031 47.746094 8.5625 45.550781 8.914062 43.390625 L 10.128906 44.164062 C 10.601562 44.722656 10.601562 47.15625 10.832031 47.960938 C 11.414062 49.964844 12.847656 51.085938 13.949219 52.917969 C 14.59375 54.003906 15.671875 56.761719 15.335938 57.90625 C 15.789062 57.15625 19.835938 61.335938 20.578125 62.210938 C 22.320312 64.257812 23.664062 66.742188 20.832031 68.765625 C 19.921875 69.421875 22.222656 73.515625 21.039062 74.523438 L 19.515625 74.917969 C 18.578125 75.492188 18.539062 76.570312 18.824219 77.546875 C 12.316406 70.191406 8.332031 60.5625 8.332031 50 Z M 68.113281 25.738281 C 68.460938 25.695312 67.664062 26.433594 67.664062 26.433594 C 67.804688 27.5 68.589844 28.082031 70.085938 28.628906 C 71.910156 29.28125 70.246094 30.523438 69.199219 30.234375 C 68.621094 30.070312 65.640625 29.171875 65.539062 30.335938 C 65.539062 31.03125 62.707031 30.34375 63.148438 29.609375 C 63.453125 29.109375 63.359375 27.996094 63.925781 27.265625 C 64.730469 26.203125 65.507812 26.78125 65.53125 27.398438 C 65.53125 29.039062 67.191406 25.84375 68.113281 25.738281 Z M 68.113281 25.738281 "/>
</g>
</svg>
