<?xml version="1.0" encoding="UTF-8"?>
<svg xmlns="http://www.w3.org/2000/svg" xmlns:xlink="http://www.w3.org/1999/xlink" width="100px" height="100px" viewBox="0 0 100 100" version="1.1">
<g id="surface1">
<path style=" stroke:none;fill-rule:nonzero;fill:rgb(0%,0%,0%);fill-opacity:1;" d="M 54.765625 34.046875 C 54.621094 33.773438 56.191406 33.621094 56.46875 33.621094 C 56.78125 33.65625 55.65625 35.503906 54.765625 34.046875 Z M 45.800781 21.246094 L 46.25 21.117188 C 46.515625 21.34375 45.949219 21.515625 46.039062 21.683594 C 46.398438 22.328125 46.125 22.71875 46.070312 23.066406 C 46.011719 23.421875 45.636719 23.265625 45.449219 23.453125 C 45.230469 23.726562 46.527344 23.765625 46.539062 23.808594 C 46.585938 23.945312 44.976562 24.179688 45.277344 24.523438 C 45.671875 25.085938 48.707031 23.707031 48.226562 23.785156 C 49.164062 23.316406 48.34375 23.265625 47.820312 22.996094 C 47.640625 22.101562 47.492188 20.71875 46.933594 20.164062 L 47.300781 19.734375 C 46.441406 18.492188 45.800781 21.246094 45.800781 21.246094 Z M 100 50 C 100 77.613281 77.613281 100 50 100 C 22.382812 100 0 77.613281 0 50 C 0 22.386719 22.382812 0 50 0 C 77.613281 0 100 22.386719 100 50 Z M 65.375 27.621094 C 65.347656 27.011719 64.582031 26.4375 63.785156 27.492188 C 63.21875 28.21875 63.320312 29.320312 63.015625 29.8125 C 62.582031 30.542969 65.378906 31.226562 65.378906 30.539062 C 65.484375 29.382812 68.429688 30.277344 69.003906 30.433594 C 70.035156 30.71875 71.683594 29.492188 69.882812 28.84375 C 68.402344 28.304688 67.625 27.726562 67.492188 26.667969 C 67.492188 26.667969 68.273438 25.933594 67.933594 25.972656 C 67.023438 26.085938 65.375 29.25 65.375 27.621094 Z M 91.609375 50 C 91.609375 45.6875 90.871094 41.332031 90.121094 39.03125 C 89.878906 38.308594 89.332031 37.734375 88.625 37.457031 C 87.558594 37.039062 83.054688 39.945312 82.375 38.515625 C 81.929688 37.5625 81.023438 39.125 79.992188 38.550781 C 79.492188 38.273438 78.101562 36.402344 77.46875 36.632812 C 76.183594 37.09375 79.445312 40.648438 80.335938 41.117188 C 81.175781 40.484375 83.886719 39.179688 84.46875 40.960938 C 85.589844 44.308594 81.398438 47.976562 79.257812 49.914062 C 76.058594 52.804688 76.65625 48.042969 74.480469 46.363281 C 73.332031 45.484375 73.34375 43.613281 72.1875 42.964844 C 71.671875 42.675781 69.300781 39.945312 69.320312 39.578125 L 69.25 40.269531 C 68.859375 40.566406 68.023438 39.15625 67.9375 38.933594 C 67.9375 40.164062 69.9375 42.121094 70.601562 43.101562 C 71.726562 44.792969 72.335938 47.25 73.714844 48.628906 C 74.457031 49.371094 77.292969 52.4375 78.03125 52.371094 C 78.832031 52.300781 81.375 50.460938 81.828125 50.566406 C 84.507812 51.203125 75.507812 63.921875 74.652344 65.496094 C 73.949219 66.816406 75.230469 70.082031 75.125 71.644531 C 75.003906 73.449219 73.585938 74.03125 72.234375 75.015625 C 70.796875 76.070312 71.132812 78.121094 69.921875 78.871094 C 67.765625 80.195312 66.214844 84.507812 63.160156 84.488281 C 62.257812 84.484375 58.40625 85.984375 57.90625 84.515625 C 57.511719 83.449219 56.988281 82.640625 56.433594 81.585938 C 55.890625 80.554688 56.371094 79.484375 55.710938 78.570312 C 55.257812 77.9375 53.734375 76.5 53.597656 75.75 C 53.585938 75.105469 54.085938 73.140625 54.761719 72.800781 C 55.71875 72.3125 54.945312 70.890625 54.828125 70.066406 C 54.628906 68.589844 53.714844 67.375 52.621094 66.519531 C 51 65.277344 51.839844 64.28125 52.21875 62.503906 C 52.21875 61.65625 51.699219 60.539062 50.558594 60.871094 C 48.207031 61.554688 48.921875 59.039062 47.210938 59.148438 C 45.972656 59.238281 44.964844 60.023438 43.820312 60.367188 C 42.378906 60.800781 40.902344 60.023438 39.480469 59.847656 C 33.617188 59.105469 31.703125 52.40625 33.234375 47.570312 C 33.390625 46.78125 32.757812 45.3125 33.03125 44.699219 C 33.691406 43.234375 35.035156 41.585938 36.207031 40.476562 C 36.867188 39.851562 37.710938 40.007812 38.484375 39.523438 C 39.683594 38.765625 39.699219 37.21875 40.871094 36.265625 C 42.535156 34.914062 44.8125 34.941406 46.988281 34.652344 C 48.148438 34.496094 52.554688 33.542969 53.25 34.398438 C 53.25 34.558594 54.046875 36.917969 53.171875 36.78125 C 54.976562 36.878906 57.546875 39.90625 59.257812 39.195312 C 60.136719 38.828125 59.816406 36.128906 61.621094 37.433594 C 62.710938 38.21875 67.605469 38.566406 68.621094 37.71875 C 69.246094 37.203125 69.59375 33.84375 68.835938 33.46875 C 69.320312 33.945312 66.292969 33.984375 66.007812 33.875 C 65.507812 33.691406 65.042969 34.351562 64.238281 33.980469 C 64.722656 34.210938 61.546875 32.503906 63.328125 31.203125 C 62.582031 31.746094 61.886719 31.046875 61.085938 31.644531 C 60.53125 32.09375 61.34375 32.394531 60.550781 32.789062 C 59.292969 33.425781 58.34375 30.601562 57.867188 30.277344 C 57.382812 29.964844 53.640625 27.335938 54.65625 29.050781 L 57.945312 32.320312 C 57.78125 32.425781 57.082031 31.128906 57.082031 32.074219 C 57.304688 31.515625 57.164062 34.488281 56.648438 33.519531 C 56.421875 33.148438 57.023438 32.941406 56.675781 32.40625 C 56.675781 32.050781 55.726562 31.703125 55.542969 31.460938 C 55.023438 30.816406 53.636719 29.390625 52.886719 29.050781 C 52.679688 28.953125 49.703125 29.410156 49.453125 29.507812 C 49.164062 29.917969 48.914062 30.347656 48.707031 30.804688 C 48.089844 31.03125 47.511719 31.328125 46.960938 31.695312 L 46.308594 33.167969 C 46.023438 33.421875 43.121094 34.378906 43.101562 34.417969 C 43.226562 34.105469 41.074219 33.703125 41.214844 33.078125 C 41.375 32.390625 42.105469 30.246094 41.917969 29.460938 C 41.714844 28.640625 46.390625 30.648438 46.691406 28.484375 C 46.8125 27.546875 46.882812 26.453125 45.386719 26.296875 C 45.671875 26.328125 48.285156 25.269531 48.714844 24.796875 C 49.328125 24.097656 50.71875 22.953125 51.734375 22.953125 C 52.917969 22.953125 52.664062 21.234375 53.207031 20.390625 C 53.753906 20.613281 52.917969 21.957031 53.570312 22.503906 C 53.53125 22.074219 55.425781 22.742188 55.609375 22.640625 C 56.042969 22.417969 58.460938 22.546875 58.082031 21.414062 C 57.664062 20.265625 58.296875 20.601562 58.835938 20.359375 C 58.746094 20.398438 60.253906 17.78125 60.511719 18.640625 C 60.335938 17.757812 58.757812 18.949219 58.207031 18.902344 C 56.9375 18.804688 57.476562 16.738281 57.953125 16.132812 C 58.324219 15.65625 56.941406 15.066406 56.921875 15.984375 C 56.898438 17.351562 55.625 18.597656 55.921875 20.417969 C 56.371094 23.160156 52.859375 19.753906 52.546875 19.941406 C 51.382812 20.648438 50.429688 19.050781 51.03125 18.089844 C 51.648438 17.113281 53.136719 17.15625 53.75 16.109375 C 54.183594 15.367188 54.6875 14.503906 55.355469 13.941406 C 57.582031 12.070312 58.199219 13.566406 60.421875 13.773438 C 62.59375 13.96875 61.15625 14.289062 60.855469 15.121094 C 60.566406 15.914062 62.046875 16.195312 62.558594 15.53125 C 62.847656 15.148438 63.511719 14.1875 63.796875 13.472656 C 64.171875 12.546875 67.554688 12.652344 65.191406 11.242188 C 63.632812 10.3125 56.839844 8.441406 52.292969 8.441406 C 51.308594 8.441406 50.621094 9.539062 49.871094 10.160156 C 48.390625 11.386719 44.585938 13.796875 42.476562 13.066406 C 40.3125 12.320312 35.683594 15.816406 34.941406 15.84375 C 34.671875 15.859375 34.957031 13.199219 36.433594 13.003906 C 35.796875 13.101562 41.628906 10.058594 41.46875 9.421875 C 41.28125 8.675781 29.808594 12.847656 30.320312 13.6875 C 30.566406 14.070312 31.566406 14.070312 30.253906 14.914062 C 29.503906 15.367188 28.703125 18.25 28 18.25 C 25.894531 19.171875 25.761719 16.4375 23.421875 19.953125 L 19.695312 21.453125 C 14.164062 27.335938 10.335938 34.78125 8.945312 43.050781 C 8.890625 43.378906 10.335938 43.992188 10.523438 44.214844 C 10.992188 44.773438 10.992188 47.183594 11.21875 47.972656 C 11.796875 49.964844 13.21875 51.070312 14.304688 52.882812 C 14.945312 53.960938 16.011719 56.691406 15.671875 57.824219 C 16.125 57.082031 20.132812 61.21875 20.867188 62.082031 C 22.59375 64.109375 23.921875 66.570312 21.121094 68.578125 C 20.21875 69.226562 22.496094 73.285156 21.320312 74.28125 L 19.816406 74.664062 C 18.332031 75.578125 19.003906 77.816406 19.90625 78.757812 C 27.476562 86.679688 38.15625 91.621094 49.988281 91.621094 C 72.976562 91.621094 91.609375 72.988281 91.609375 50 Z M 43.664062 23.511719 C 44.183594 23.285156 44.882812 23.289062 44.957031 22.59375 C 45.023438 21.980469 45.140625 22.40625 45.289062 22.179688 C 45.4375 21.957031 45.011719 21.605469 44.835938 21.570312 C 44.566406 21.515625 44.382812 21.859375 44.210938 22.003906 L 43.914062 22.082031 L 43.628906 22.445312 L 43.664062 22.648438 L 43.300781 23.089844 C 42.945312 23.4375 43.308594 23.667969 43.664062 23.511719 Z M 43.664062 23.511719 "/>
</g>
</svg>
