<?xml version="1.0" encoding="UTF-8" standalone="no"?>
<svg
   xmlns:dc="http://purl.org/dc/elements/1.1/"
   xmlns:cc="http://creativecommons.org/ns#"
   xmlns:rdf="http://www.w3.org/1999/02/22-rdf-syntax-ns#"
   xmlns:svg="http://www.w3.org/2000/svg"
   xmlns="http://www.w3.org/2000/svg"
   xmlns:xlink="http://www.w3.org/1999/xlink"
   xmlns:sodipodi="http://sodipodi.sourceforge.net/DTD/sodipodi-0.dtd"
   xmlns:inkscape="http://www.inkscape.org/namespaces/inkscape"
   width="147.40549mm"
   height="188.94099mm"
   viewBox="0 0 147.40549 188.94099"
   version="1.1"
   id="svg8"
   inkscape:version="1.0.2 (e86c870879, 2021-01-15)"
   sodipodi:docname="header.svg">
  <defs
     id="defs2">
    <filter
       style="color-interpolation-filters:sRGB"
       inkscape:label="Drop Shadow"
       id="filter1988">
      <feFlood
         flood-opacity="0.498039"
         flood-color="rgb(0,0,0)"
         result="flood"
         id="feFlood1978" />
      <feComposite
         in="flood"
         in2="SourceGraphic"
         operator="in"
         result="composite1"
         id="feComposite1980" />
      <feGaussianBlur
         in="composite1"
         stdDeviation="3"
         result="blur"
         id="feGaussianBlur1982" />
      <feOffset
         dx="6"
         dy="6"
         result="offset"
         id="feOffset1984" />
      <feComposite
         in="SourceGraphic"
         in2="offset"
         operator="over"
         result="composite2"
         id="feComposite1986" />
    </filter>
    <filter
       style="color-interpolation-filters:sRGB"
       inkscape:label="Drop Shadow"
       id="filter2000">
      <feFlood
         flood-opacity="0.498039"
         flood-color="rgb(0,0,0)"
         result="flood"
         id="feFlood1990" />
      <feComposite
         in="flood"
         in2="SourceGraphic"
         operator="in"
         result="composite1"
         id="feComposite1992" />
      <feGaussianBlur
         in="composite1"
         stdDeviation="3"
         result="blur"
         id="feGaussianBlur1994" />
      <feOffset
         dx="6"
         dy="6"
         result="offset"
         id="feOffset1996" />
      <feComposite
         in="SourceGraphic"
         in2="offset"
         operator="over"
         result="composite2"
         id="feComposite1998" />
    </filter>
    <filter
       style="color-interpolation-filters:sRGB"
       inkscape:label="Drop Shadow"
       id="filter34">
      <feFlood
         flood-opacity="0.498039"
         flood-color="rgb(0,0,0)"
         result="flood"
         id="feFlood24" />
      <feComposite
         in="flood"
         in2="SourceGraphic"
         operator="in"
         result="composite1"
         id="feComposite26" />
      <feGaussianBlur
         in="composite1"
         stdDeviation="3"
         result="blur"
         id="feGaussianBlur28" />
      <feOffset
         dx="6"
         dy="6"
         result="offset"
         id="feOffset30" />
      <feComposite
         in="SourceGraphic"
         in2="offset"
         operator="over"
         result="composite2"
         id="feComposite32" />
    </filter>
  </defs>
  <sodipodi:namedview
     id="base"
     pagecolor="#ffffff"
     bordercolor="#666666"
     borderopacity="1.0"
     inkscape:pageopacity="0.0"
     inkscape:pageshadow="2"
     inkscape:zoom="1"
     inkscape:cx="278.77009"
     inkscape:cy="443.64228"
     inkscape:document-units="mm"
     inkscape:current-layer="layer1"
     inkscape:document-rotation="0"
     showgrid="false"
     showborder="false"
     inkscape:snap-center="true"
     inkscape:window-width="1920"
     inkscape:window-height="1053"
     inkscape:window-x="0"
     inkscape:window-y="27"
     inkscape:window-maximized="1"
     fit-margin-top="0"
     fit-margin-left="0"
     fit-margin-right="0"
     fit-margin-bottom="0" />
  <metadata
     id="metadata5">
    <rdf:RDF>
      <cc:Work
         rdf:about="">
        <dc:format>image/svg+xml</dc:format>
        <dc:type
           rdf:resource="http://purl.org/dc/dcmitype/StillImage" />
        <dc:title></dc:title>
      </cc:Work>
    </rdf:RDF>
  </metadata>
  <g
     inkscape:label="Layer 1"
     inkscape:groupmode="layer"
     id="layer1"
     style="opacity:0.82399"
     transform="translate(-1.1191634,-41.369647)">
    <g
       id="g38">
      <path
         d="m 92.339423,61.126479 v 16.856197 q -9.839911,-4.706045 -18.567485,-7.016285 -8.727574,-2.31024 -16.856197,-2.31024 -14.118134,0 -21.818934,5.476124 -7.615236,5.476125 -7.615236,15.57273 0,8.470881 5.048302,12.834665 5.133867,4.27823 19.337565,6.93073 l 10.438863,2.13911 q 19.337566,3.67927 28.492962,13.00579 9.240957,9.24096 9.240957,24.81369 0,18.56749 -12.492406,28.15071 -12.406845,9.58322 -36.450456,9.58322 -9.069831,0 -19.337565,-2.05355 -10.182169,-2.05355 -21.134419,-6.07508 v -17.7974 q 10.524427,5.90394 20.621032,8.8987 10.096605,2.99476 19.850952,2.99476 14.80265,0 22.845709,-5.81839 8.043058,-5.81838 8.043058,-16.5995 0,-9.41209 -5.818383,-14.71709 -5.732818,-5.30499 -18.909743,-7.95749 l -10.524428,-2.05355 q -19.337565,-3.8504 -27.979574,-12.06458 -8.64201,-8.21419 -8.64201,-22.845714 0,-16.941761 11.893459,-26.696108 11.979023,-9.754347 32.942313,-9.754347 8.984267,0 18.310792,1.625725 9.326525,1.625724 19.080872,4.877173 z"
         style="font-style:normal;font-variant:normal;font-weight:normal;font-stretch:normal;font-size:175.236px;line-height:1.25;font-family:'DejaVu Sans';-inkscape-font-specification:'DejaVu Sans, Normal';font-variant-ligatures:normal;font-variant-caps:normal;font-variant-numeric:normal;font-variant-east-asian:normal;fill:#000080;fill-opacity:1;stroke:none;stroke-width:4.38093;filter:url(#filter2000)"
         id="path1926" />
      <path
         style="font-style:normal;font-variant:normal;font-weight:normal;font-stretch:normal;font-size:175.236px;line-height:1.25;font-family:'DejaVu Sans';-inkscape-font-specification:'DejaVu Sans, Normal';font-variant-ligatures:normal;font-variant-caps:normal;font-variant-numeric:normal;font-variant-east-asian:normal;fill:#0000ff;fill-opacity:1;stroke:none;stroke-width:4.38093;filter:url(#filter34)"
         sodipodi:type="inkscape:offset"
         inkscape:radius="0.0001255"
         inkscape:original="M 169.96094 92.636719 L 169.96094 220.38477 L 215.82227 220.38477 C 230.14005 220.38477 241.1777 217.27628 248.93555 211.05859 C 256.69339 204.84091 260.57227 196.02773 260.57227 184.61914 C 260.57227 175.94861 258.20527 168.73204 253.4707 162.9707 C 248.79318 157.15232 242.20448 153.33124 233.70508 151.50586 C 240.77841 150.36501 246.14027 147.48377 249.79102 142.86328 C 253.44177 138.2428 255.26758 132.02582 255.26758 124.21094 C 255.26758 114.11433 251.70264 106.32769 244.57227 100.85156 C 237.44189 95.375441 227.28825 92.636719 214.11133 92.636719 L 169.96094 92.636719 z M 187.24414 106.83984 L 212.82812 106.83984 C 221.27048 106.83984 227.54525 108.43841 231.65234 111.63281 C 235.81648 114.82722 237.89844 119.64594 237.89844 126.0918 C 237.89844 132.59469 235.81648 137.44427 231.65234 140.63867 C 227.54525 143.77603 221.27049 145.3457 212.82812 145.3457 L 187.24414 145.3457 L 187.24414 106.83984 z M 187.24414 159.37695 L 214.9668 159.37695 C 224.2648 159.37695 231.13854 161.2875 235.58789 165.10938 C 240.09428 168.87422 242.34766 174.75031 242.34766 182.73633 C 242.34766 190.6653 240.09428 196.5703 235.58789 200.44922 C 231.13854 204.2711 224.2648 206.18164 214.9668 206.18164 L 187.24414 206.18164 L 187.24414 159.37695 z "
         xlink:href="#path1928"
         id="path1942"
         d="M 169.96094,92.636719 V 220.38477 h 45.86133 c 14.31778,0 25.35543,-3.10849 33.11328,-9.32618 7.75784,-6.21768 11.63672,-15.03086 11.63672,-26.43945 0,-8.67053 -2.367,-15.8871 -7.10157,-21.64844 -4.67752,-5.81838 -11.26622,-9.63946 -19.76562,-11.46484 7.07333,-1.14085 12.43519,-4.02209 16.08594,-8.64258 3.65075,-4.62048 5.47656,-10.83746 5.47656,-18.65234 0,-10.09661 -3.56494,-17.88325 -10.69531,-23.35938 -7.13038,-5.476119 -17.28402,-8.214841 -30.46094,-8.214841 z m 17.2832,14.203121 h 25.58398 c 8.44236,0 14.71713,1.59857 18.82422,4.79297 4.16414,3.19441 6.2461,8.01313 6.2461,14.45899 0,6.50289 -2.08196,11.35247 -6.2461,14.54687 -4.10709,3.13736 -10.38185,4.70703 -18.82422,4.70703 h -25.58398 z m 0,52.53711 h 27.72266 c 9.298,0 16.17174,1.91055 20.62109,5.73243 4.50639,3.76484 6.75977,9.64093 6.75977,17.62695 0,7.92897 -2.25338,13.83397 -6.75977,17.71289 -4.44935,3.82188 -11.32309,5.73242 -20.62109,5.73242 h -27.72266 z"
         transform="translate(-121.10875,-2.8489459)"
         inkscape:href="#path1928" />
    </g>
  </g>
</svg>
