<?xml version="1.0" encoding="UTF-8"?>
<svg xmlns="http://www.w3.org/2000/svg" xmlns:xlink="http://www.w3.org/1999/xlink" width="100px" height="100px" viewBox="0 0 100 100" version="1.1">
<g id="surface1">
<path style=" stroke:none;fill-rule:evenodd;fill:rgb(0%,0%,0%);fill-opacity:1;" d="M 91.667969 54.167969 C 91.554688 31.261719 72.929688 12.5 50 12.5 C 27.070312 12.5 8.445312 31.261719 8.332031 54.167969 L 18.75 54.167969 C 22.199219 54.167969 25 56.96875 25 60.417969 L 25 89.582031 C 25 93.03125 22.199219 95.832031 18.75 95.832031 L 6.25 95.832031 C 2.800781 95.832031 0 93.03125 0 89.582031 L 0 54.167969 C 0.113281 26.664062 22.476562 4.167969 50 4.167969 C 77.523438 4.167969 99.886719 26.664062 100 54.167969 L 100 89.582031 C 100 93.03125 97.199219 95.832031 93.75 95.832031 L 81.25 95.832031 C 77.800781 95.832031 75 93.03125 75 89.582031 L 75 60.417969 C 75 56.96875 77.800781 54.167969 81.25 54.167969 Z M 91.667969 54.167969 "/>
</g>
</svg>
