<?xml version="1.0" encoding="UTF-8"?>
<svg xmlns="http://www.w3.org/2000/svg" xmlns:xlink="http://www.w3.org/1999/xlink" width="100px" height="100px" viewBox="0 0 100 100" version="1.1">
<g id="surface1">
<path style=" stroke:none;fill-rule:nonzero;fill:rgb(0%,0%,0%);fill-opacity:1;" d="M 7.5 37.5 L 4.167969 20.832031 L 95.832031 20.832031 L 92.5 37.5 L 84.046875 37.5 L 85.671875 29.167969 L 14.328125 29.167969 L 16.054688 37.5 Z M 84.894531 12.5 L 87.414062 4.167969 L 12.5 4.167969 L 15.367188 12.5 Z M 100 45.832031 L 91.667969 100 L 8.332031 100 L 0 45.832031 Z M 66.667969 62.5 C 66.667969 60.199219 64.804688 58.332031 62.5 58.332031 L 37.5 58.332031 C 35.195312 58.332031 33.332031 60.199219 33.332031 62.5 C 33.332031 64.800781 35.195312 66.667969 37.5 66.667969 L 62.5 66.667969 C 64.804688 66.667969 66.667969 64.800781 66.667969 62.5 Z M 66.667969 62.5 "/>
</g>
</svg>
