<?xml version="1.0" encoding="UTF-8"?>
<svg xmlns="http://www.w3.org/2000/svg" xmlns:xlink="http://www.w3.org/1999/xlink" width="100px" height="100px" viewBox="0 0 100 100" version="1.1">
<g id="surface1">
<path style=" stroke:none;fill-rule:nonzero;fill:rgb(0%,0%,0%);fill-opacity:1;" d="M 50 4.167969 C 23.589844 4.167969 0 21.773438 0 45.863281 C 0 54.40625 3.078125 62.789062 8.53125 69.300781 C 8.757812 76.921875 4.265625 87.867188 0.226562 95.832031 C 11.066406 93.875 26.480469 89.550781 33.46875 85.265625 C 71.949219 94.628906 100 71.078125 100 45.863281 C 100 21.644531 76.246094 4.167969 50 4.167969 Z M 54.167969 66.667969 L 45.832031 66.667969 L 45.832031 41.667969 L 54.167969 41.667969 Z M 50 34.375 C 47.125 34.375 44.792969 32.039062 44.792969 29.167969 C 44.792969 26.292969 47.125 23.957031 50 23.957031 C 52.875 23.957031 55.207031 26.292969 55.207031 29.167969 C 55.207031 32.039062 52.875 34.375 50 34.375 Z M 50 34.375 "/>
</g>
</svg>
