<?xml version="1.0" encoding="UTF-8"?>
<svg xmlns="http://www.w3.org/2000/svg" xmlns:xlink="http://www.w3.org/1999/xlink" width="100px" height="100px" viewBox="0 0 100 100" version="1.1">
<g id="surface1">
<path style=" stroke:none;fill-rule:nonzero;fill:rgb(0%,0%,0%);fill-opacity:1;" d="M 54.167969 66.667969 L 45.832031 66.667969 L 45.832031 41.667969 L 54.167969 41.667969 Z M 50 23.957031 C 52.875 23.957031 55.207031 26.292969 55.207031 29.167969 C 55.207031 32.039062 52.875 34.375 50 34.375 C 47.125 34.375 44.792969 32.039062 44.792969 29.167969 C 44.792969 26.292969 47.125 23.957031 50 23.957031 Z M 50 12.5 C 72.976562 12.5 91.667969 27.464844 91.667969 45.863281 C 91.667969 66.351562 70.230469 79.03125 50.375 79.03125 C 42.304688 79.03125 36.28125 77.378906 32.066406 76.351562 C 27.898438 78.902344 25.421875 80.671875 14.265625 83.933594 C 16.496094 78.210938 17.28125 72.484375 16.773438 66.164062 C 13.285156 61.996094 8.335938 56.164062 8.335938 45.863281 C 8.332031 27.464844 27.023438 12.5 50 12.5 Z M 50 4.167969 C 23.589844 4.167969 0 21.773438 0 45.863281 C 0 54.40625 3.078125 62.789062 8.53125 69.300781 C 8.757812 76.921875 4.265625 87.867188 0.226562 95.832031 C 11.066406 93.875 26.480469 89.550781 33.46875 85.265625 C 39.375 86.703125 45.03125 87.363281 50.378906 87.363281 C 79.894531 87.363281 100.003906 67.210938 100.003906 45.859375 C 100 21.644531 76.246094 4.167969 50 4.167969 Z M 50 4.167969 "/>
</g>
</svg>
