<?xml version="1.0" encoding="UTF-8"?>
<svg xmlns="http://www.w3.org/2000/svg" xmlns:xlink="http://www.w3.org/1999/xlink" width="100px" height="100px" viewBox="0 0 100 100" version="1.1">
<g id="surface1">
<path style=" stroke:none;fill-rule:evenodd;fill:rgb(0%,0%,0%);fill-opacity:1;" d="M 66.667969 4.167969 C 48.257812 4.167969 33.332031 19.09375 33.332031 37.5 C 33.332031 39.9375 33.597656 42.3125 34.09375 44.601562 L 0 75 L 0 95.832031 L 25 95.832031 L 25 87.5 L 33.332031 87.5 L 33.332031 79.167969 L 41.667969 79.167969 L 54.441406 68.515625 C 58.230469 70.011719 62.351562 70.832031 66.667969 70.832031 C 85.074219 70.832031 100 55.90625 100 37.5 C 100 19.09375 85.074219 4.167969 66.667969 4.167969 Z M 40.160156 75 L 53.675781 63.738281 C 55.414062 64.421875 59.976562 66.667969 66.667969 66.667969 C 82.746094 66.667969 95.832031 53.585938 95.832031 37.5 C 95.832031 21.414062 82.746094 8.332031 66.667969 8.332031 C 50.582031 8.332031 37.5 21.414062 37.5 37.5 C 37.5 41.054688 38.078125 43.324219 38.679688 46.089844 L 4.167969 76.867188 L 4.167969 91.667969 L 20.832031 91.667969 L 20.832031 83.332031 L 29.167969 83.332031 L 29.167969 75 Z M 40.859375 58.332031 L 38.078125 55.230469 L 8.332031 81.90625 L 8.332031 87.5 Z M 83.332031 29.167969 C 83.332031 24.566406 79.601562 20.832031 75 20.832031 C 70.398438 20.832031 66.667969 24.566406 66.667969 29.167969 C 66.667969 33.765625 70.398438 37.5 75 37.5 C 79.601562 37.5 83.332031 33.765625 83.332031 29.167969 Z M 79.167969 29.167969 C 79.167969 26.867188 77.300781 25 75 25 C 72.699219 25 70.832031 26.867188 70.832031 29.167969 C 70.832031 31.46875 72.699219 33.332031 75 33.332031 C 77.300781 33.332031 79.167969 31.46875 79.167969 29.167969 Z M 79.167969 29.167969 "/>
</g>
</svg>
