<?xml version="1.0" encoding="UTF-8"?>
<svg xmlns="http://www.w3.org/2000/svg" xmlns:xlink="http://www.w3.org/1999/xlink" width="100px" height="100px" viewBox="0 0 100 100" version="1.1">
<g id="surface1">
<path style=" stroke:none;fill-rule:nonzero;fill:rgb(0%,0%,0%);fill-opacity:1;" d="M 91.667969 13.332031 C 91.667969 10.570312 89.429688 8.332031 86.667969 8.332031 L 13.332031 8.332031 C 10.570312 8.332031 8.332031 10.570312 8.332031 13.332031 L 8.332031 62.5 L 91.667969 62.5 Z M 83.332031 54.167969 L 16.667969 54.167969 L 16.667969 16.667969 L 83.332031 16.667969 Z M 91.667969 66.667969 L 8.332031 66.667969 C 7.511719 68.21875 0 85.757812 0 87.492188 C 0 89.664062 1.742188 91.667969 4.175781 91.667969 L 95.824219 91.667969 C 98.257812 91.667969 100 89.664062 100 87.492188 C 100 85.757812 92.488281 68.21875 91.667969 66.667969 Z M 40.710938 87.5 L 42.660156 83.332031 L 57.335938 83.332031 L 59.28125 87.5 Z M 40.710938 87.5 "/>
</g>
</svg>
