<?xml version="1.0" encoding="UTF-8"?>
<svg xmlns="http://www.w3.org/2000/svg" xmlns:xlink="http://www.w3.org/1999/xlink" width="100px" height="100px" viewBox="0 0 100 100" version="1.1">
<g id="surface1">
<path style=" stroke:none;fill-rule:nonzero;fill:rgb(0%,0%,0%);fill-opacity:1;" d="M 58.332031 79.167969 L 41.667969 79.167969 C 40.515625 79.167969 39.582031 80.101562 39.582031 81.25 C 39.582031 82.398438 40.515625 83.332031 41.667969 83.332031 L 58.332031 83.332031 C 59.484375 83.332031 60.417969 82.398438 60.417969 81.25 C 60.417969 80.101562 59.484375 79.167969 58.332031 79.167969 Z M 58.332031 87.5 L 41.667969 87.5 C 40.515625 87.5 39.582031 88.433594 39.582031 89.582031 C 39.582031 90.734375 40.515625 91.667969 41.667969 91.667969 L 58.332031 91.667969 C 59.484375 91.667969 60.417969 90.734375 60.417969 89.582031 C 60.417969 88.433594 59.484375 87.5 58.332031 87.5 Z M 59.375 95.832031 L 40.625 95.832031 L 45.578125 99.09375 C 46.214844 99.664062 47.15625 100 48.136719 100 L 51.867188 100 C 52.84375 100 53.785156 99.664062 54.429688 99.09375 Z M 75 38.335938 C 75 53.207031 61.609375 63.265625 61.609375 75 L 53.320312 75 C 53.308594 67.257812 56.945312 60.878906 60.492188 54.722656 C 63.664062 49.199219 66.667969 43.984375 66.667969 38.335938 C 66.667969 27.535156 58.019531 22.621094 49.988281 22.621094 C 41.96875 22.621094 33.332031 27.535156 33.332031 38.335938 C 33.332031 43.984375 36.335938 49.199219 39.507812 54.722656 C 43.054688 60.878906 46.695312 67.257812 46.675781 75 L 38.390625 75 C 38.390625 63.265625 25 53.207031 25 38.335938 C 25 22.824219 37.492188 14.289062 49.988281 14.289062 C 62.492188 14.289062 75 22.835938 75 38.335938 Z M 91.667969 35.460938 L 91.667969 41.175781 L 81.089844 41.175781 C 81.175781 40.246094 81.25 39.308594 81.25 38.335938 C 81.25 37.351562 81.179688 36.402344 81.101562 35.460938 Z M 47.300781 8.15625 L 47.300781 0 L 53.011719 0 L 53.011719 8.183594 C 52.003906 8.089844 50.996094 8.039062 49.988281 8.039062 C 49.09375 8.039062 48.195312 8.078125 47.300781 8.15625 Z M 31.703125 13.546875 L 27.371094 5.460938 L 32.40625 2.765625 L 36.726562 10.816406 C 34.984375 11.570312 33.300781 12.488281 31.703125 13.546875 Z M 75.8125 20.773438 L 83.902344 14.964844 L 87.234375 19.613281 L 78.675781 25.75 C 77.878906 23.957031 76.910156 22.304688 75.8125 20.773438 Z M 63.273438 10.820312 L 67.59375 2.765625 L 72.628906 5.460938 L 68.289062 13.550781 C 66.699219 12.492188 65.015625 11.578125 63.273438 10.820312 Z M 21.320312 25.75 L 12.765625 19.617188 L 16.089844 14.96875 L 24.183594 20.773438 C 23.082031 22.300781 22.121094 23.953125 21.320312 25.75 Z M 78.433594 51.679688 L 88.242188 55.65625 L 86.101562 60.949219 L 75.996094 56.859375 C 76.871094 55.203125 77.695312 53.472656 78.433594 51.679688 Z M 23.816406 56.492188 L 14 60.90625 L 11.65625 55.695312 L 21.410156 51.3125 C 22.128906 53.117188 22.953125 54.835938 23.816406 56.492188 Z M 18.910156 41.175781 L 8.332031 41.175781 L 8.332031 35.460938 L 18.898438 35.460938 C 18.820312 36.398438 18.75 37.351562 18.75 38.335938 C 18.75 39.308594 18.824219 40.246094 18.910156 41.175781 Z M 18.910156 41.175781 "/>
</g>
</svg>
