<?xml version="1.0" encoding="UTF-8"?>
<svg xmlns="http://www.w3.org/2000/svg" xmlns:xlink="http://www.w3.org/1999/xlink" width="100px" height="100px" viewBox="0 0 100 100" version="1.1">
<g id="surface1">
<path style=" stroke:none;fill-rule:nonzero;fill:rgb(0%,0%,0%);fill-opacity:1;" d="M 69.867188 64.929688 L 67.765625 60.496094 C 69.046875 52.703125 65.460938 45.835938 61.179688 41.4375 C 57.585938 37.746094 58.746094 34.15625 58.746094 31.042969 C 58.746094 26.074219 56.710938 20.832031 50.53125 20.832031 C 43.925781 20.832031 42.113281 26.34375 42.050781 29.488281 C 41.890625 37.039062 43.574219 39 39.164062 44.5 C 33.960938 50.96875 33.191406 57.414062 34.371094 60.832031 C 33.816406 61.46875 33.078125 62.179688 31.691406 62.765625 C 27.867188 64.433594 30.671875 67.222656 29.613281 69.199219 C 29.3125 69.761719 29.167969 70.347656 29.167969 70.914062 C 29.167969 72.648438 30.546875 74.148438 33.058594 73.925781 C 36.441406 73.621094 39.558594 76.015625 41.574219 76.015625 C 43.359375 76.015625 44.820312 75.003906 45.496094 73.609375 C 48.6875 72.824219 52.621094 72.921875 55.808594 73.742188 C 56.382812 75.347656 57.933594 76.382812 59.65625 76.382812 C 63.433594 76.382812 64.164062 72.105469 68.492188 70.65625 C 70.046875 70.136719 70.832031 68.625 70.832031 67.210938 C 70.832031 66.3125 70.511719 65.453125 69.867188 64.929688 Z M 48.691406 40.703125 C 47.953125 40.703125 47.347656 40.109375 46.375 39.390625 C 45.152344 38.484375 43.910156 37.960938 43.925781 37.007812 C 43.925781 36.351562 44.800781 36.148438 45.933594 35.429688 C 47.152344 34.65625 47.625 33.878906 48.820312 33.878906 C 50.046875 33.878906 50.421875 34.496094 52.082031 35.21875 C 53.726562 35.925781 54.863281 36.203125 54.863281 37.007812 C 54.863281 37.828125 53.148438 38.414062 52.183594 39.015625 C 50.773438 39.886719 50.042969 40.703125 48.691406 40.703125 Z M 52.546875 28.632812 C 54.582031 28.957031 54.8125 32.546875 53.835938 34.3125 L 53.015625 33.980469 C 53.445312 32.71875 53.4375 30.648438 52.007812 30.519531 C 51.101562 30.4375 50.523438 31.632812 50.394531 32.652344 C 50.042969 32.503906 49.652344 32.398438 49.183594 32.359375 C 49.332031 30.21875 50.707031 28.335938 52.546875 28.632812 Z M 44.664062 29.398438 C 46.226562 29.003906 47.15625 30.824219 47.164062 32.71875 L 46.449219 33.160156 C 46.351562 32.367188 46 31.078125 45.109375 31.355469 C 44.15625 31.644531 44.3125 33.859375 44.839844 34.308594 L 44.136719 34.703125 C 43.160156 33.070312 43.160156 29.769531 44.664062 29.398438 Z M 39.769531 73.941406 C 35.226562 71.875 33.679688 72.347656 32.8125 72.347656 C 31.007812 72.347656 30.429688 71.003906 31.101562 69.734375 C 31.679688 68.664062 31.5 67.535156 31.359375 66.628906 C 31.136719 65.242188 31.101562 64.789062 32.464844 64.191406 C 34.351562 63.390625 35.191406 62.363281 35.816406 61.59375 C 37.570312 59.421875 39.34375 62.835938 40.796875 65.871094 C 41.742188 67.84375 43.589844 68.835938 44.164062 71.019531 C 44.683594 73.039062 42.511719 75.1875 39.769531 73.941406 Z M 55.945312 69.605469 C 52.738281 71.164062 48.664062 71.875 45.609375 70.296875 C 45.164062 68.992188 44.4375 68.148438 43.65625 67.300781 C 44.90625 66.976562 45.832031 65.417969 44.722656 63.855469 C 43.542969 62.183594 41.125 61.019531 38.683594 59.128906 C 36.398438 57.363281 35.671875 53.011719 38.785156 48.140625 C 37.269531 52.453125 38.160156 56.425781 38.914062 57.5625 C 39.070312 55.277344 39.253906 51.453125 42.378906 46.878906 C 43.953125 44.570312 43.980469 41.515625 44.015625 39.609375 L 45.449219 40.589844 C 46.503906 41.371094 47.390625 42.234375 48.65625 42.234375 C 50.53125 42.234375 51.566406 41.15625 53.015625 40.257812 C 53.585938 39.914062 54.4375 39.558594 55.148438 39.070312 C 56.355469 44.800781 61.34375 51.695312 61.628906 55.625 C 62.78125 53.238281 61.296875 47.492188 61.296875 47.492188 C 63.246094 50.464844 63.402344 52.945312 63.484375 55.984375 C 64.851562 56.539062 66.3125 58 66.445312 59.914062 L 65.875 59.847656 C 65.589844 57.71875 59.847656 54.59375 59.328125 58.601562 C 56.570312 59.019531 57.574219 63.382812 57.015625 66.207031 C 56.757812 67.503906 56.285156 68.53125 55.945312 69.605469 Z M 67.164062 69.507812 C 64.882812 70.386719 63.34375 72.253906 62.28125 73.414062 C 60.246094 75.65625 57.546875 74.582031 57.265625 72.492188 C 56.960938 70.253906 58.09375 69.03125 58.585938 66.53125 C 59.027344 64.246094 58.53125 60.730469 59.582031 60.359375 C 60.265625 64.417969 64.363281 62.707031 65.300781 61.597656 C 66.816406 61.597656 66.949219 62.117188 67.292969 63.542969 C 67.503906 64.433594 67.796875 65.183594 68.625 66.0625 C 69.601562 67.09375 69.304688 68.683594 67.164062 69.507812 Z M 48.644531 39.398438 C 47.140625 39.398438 46.007812 38.402344 45.09375 37.621094 C 44.625 37.222656 45.203125 36.492188 45.679688 36.890625 C 46.574219 37.648438 47.476562 38.453125 48.644531 38.453125 C 50.046875 38.453125 51.285156 37.25 52.964844 36.59375 C 53.539062 36.367188 53.863281 37.253906 53.296875 37.476562 C 51.667969 38.117188 50.359375 39.398438 48.644531 39.398438 Z M 50 0 C 22.386719 0 0 22.386719 0 50 C 0 77.613281 22.386719 100 50 100 C 77.613281 100 100 77.613281 100 50 C 100 22.386719 77.613281 0 50 0 Z M 69.808594 74.613281 C 68.8125 74.945312 68.160156 75.589844 67.109375 76.703125 C 65.648438 78.238281 63.449219 80.554688 59.65625 80.554688 C 57.082031 80.554688 54.710938 79.371094 53.171875 77.453125 C 51.5 77.199219 49.632812 77.164062 47.929688 77.386719 C 46.34375 79.148438 44.066406 80.183594 41.574219 80.183594 C 38.960938 80.183594 36.03125 78.113281 32.566406 78.113281 C 28.25 78.113281 25 75.015625 25 70.914062 C 25 69.859375 25.230469 68.785156 25.671875 67.777344 C 24.945312 63.761719 26.066406 60.789062 29.792969 59.050781 C 29.40625 54.539062 30.800781 48.242188 35.914062 41.886719 C 38.21875 39.015625 38.171875 38.148438 37.992188 34.496094 C 37.925781 33.140625 37.84375 31.453125 37.882812 29.398438 C 38.007812 23.265625 42.023438 16.667969 50.53125 16.667969 C 57.835938 16.667969 63.621094 22.125 62.8125 33.160156 C 62.636719 35.738281 62.621094 36.941406 64.164062 38.53125 C 66.949219 41.398438 73.066406 48.96875 72.09375 59.433594 C 72.53125 60.316406 72.742188 61.164062 72.960938 62.117188 C 74.261719 63.402344 75 65.230469 75 67.210938 C 75 70.601562 72.914062 73.574219 69.808594 74.613281 Z M 69.808594 74.613281 "/>
</g>
</svg>
