<?xml version="1.0" encoding="UTF-8"?>
<svg xmlns="http://www.w3.org/2000/svg" xmlns:xlink="http://www.w3.org/1999/xlink" width="100px" height="100px" viewBox="0 0 100 100" version="1.1">
<g id="surface1">
<path style=" stroke:none;fill-rule:nonzero;fill:rgb(0%,0%,0%);fill-opacity:1;" d="M 85.753906 79.371094 C 83.460938 77.511719 84.351562 73.40625 81.976562 71.382812 C 84.28125 57.363281 77.820312 45.003906 70.121094 37.082031 C 63.65625 30.4375 65.742188 23.96875 65.742188 18.375 C 65.742188 9.433594 62.070312 0 50.949219 0 C 39.0625 0 35.804688 9.917969 35.6875 15.578125 C 35.40625 29.167969 38.433594 32.699219 30.476562 42.59375 C 21.121094 54.226562 19.742188 65.835938 21.851562 71.996094 C 20.867188 73.148438 19.535156 74.421875 17.039062 75.476562 C 10.160156 78.472656 15.203125 83.496094 13.300781 87.058594 C 12.757812 88.070312 12.5 89.128906 12.5 90.140625 C 12.5 93.265625 14.984375 95.972656 19.496094 95.566406 C 25.582031 95.023438 31.203125 99.339844 34.835938 99.339844 C 38.042969 99.339844 40.671875 97.511719 41.898438 95 C 47.636719 93.585938 54.722656 93.765625 60.453125 95.246094 C 61.484375 98.125 64.273438 100 67.378906 100 C 74.175781 100 75.484375 92.296875 83.277344 89.6875 C 86.085938 88.75 87.5 86.023438 87.5 83.484375 C 87.5 81.863281 86.921875 80.316406 85.753906 79.371094 Z M 47.640625 35.765625 C 46.3125 35.765625 45.210938 34.691406 43.472656 33.402344 C 41.273438 31.765625 39.039062 30.824219 39.0625 29.109375 C 39.0625 27.929688 40.640625 27.566406 42.683594 26.273438 C 44.875 24.882812 45.730469 23.472656 47.886719 23.472656 C 50.09375 23.472656 50.761719 24.59375 53.761719 25.890625 C 56.710938 27.164062 58.765625 27.664062 58.765625 29.109375 C 58.765625 30.589844 55.679688 31.644531 53.941406 32.726562 C 51.386719 34.300781 50.074219 35.765625 47.640625 35.765625 Z M 54.578125 14.039062 C 58.253906 14.625 58.667969 21.085938 56.910156 24.261719 L 55.429688 23.65625 C 56.195312 21.398438 56.183594 17.671875 53.617188 17.433594 C 51.988281 17.28125 50.9375 19.433594 50.710938 21.273438 C 50.074219 21.007812 49.378906 20.816406 48.53125 20.746094 C 48.792969 16.898438 51.273438 13.507812 54.578125 14.039062 Z M 40.398438 15.417969 C 43.21875 14.71875 44.878906 17.992188 44.890625 21.398438 L 43.601562 22.1875 C 43.425781 20.757812 42.789062 18.449219 41.1875 18.941406 C 39.476562 19.476562 39.753906 23.453125 40.707031 24.269531 L 39.433594 24.976562 C 37.683594 22.035156 37.6875 16.089844 40.398438 15.417969 Z M 31.585938 95.59375 C 23.40625 91.875 20.628906 92.71875 19.066406 92.71875 C 15.828125 92.71875 14.769531 90.308594 15.984375 88.023438 C 17.023438 86.085938 16.699219 84.058594 16.445312 82.429688 C 16.054688 79.933594 15.984375 79.121094 18.4375 78.046875 C 21.832031 76.605469 23.34375 74.75 24.46875 73.363281 C 27.625 69.457031 30.8125 75.601562 33.425781 81.070312 C 35.121094 84.617188 38.460938 86.414062 39.488281 90.34375 C 40.433594 93.96875 36.527344 97.847656 31.585938 95.59375 Z M 60.699219 87.789062 C 54.933594 90.589844 47.585938 91.878906 42.09375 89.03125 C 41.28125 86.6875 39.976562 85.171875 38.578125 83.644531 C 40.824219 83.054688 42.492188 80.253906 40.496094 77.441406 C 38.367188 74.4375 34.015625 72.339844 29.621094 68.941406 C 25.507812 65.761719 24.210938 57.925781 29.808594 49.167969 C 27.078125 56.921875 28.675781 64.074219 30.046875 66.121094 C 30.328125 62.003906 30.65625 55.128906 36.28125 46.890625 C 39.117188 42.734375 39.15625 37.242188 39.222656 33.808594 L 41.804688 35.578125 C 43.703125 36.980469 45.296875 38.523438 47.578125 38.523438 C 50.953125 38.523438 52.820312 36.585938 55.421875 34.96875 C 56.4375 34.34375 57.976562 33.714844 59.265625 32.835938 C 61.433594 43.148438 70.40625 55.558594 70.914062 62.625 C 73 58.324219 70.320312 47.984375 70.320312 47.984375 C 73.828125 53.335938 74.109375 57.800781 74.261719 63.273438 C 76.714844 64.28125 79.351562 66.898438 79.59375 70.34375 L 78.570312 70.226562 C 78.046875 66.398438 67.707031 60.773438 66.78125 67.976562 C 61.820312 68.734375 63.625 76.585938 62.625 81.679688 C 62.164062 84.007812 61.316406 85.851562 60.699219 87.789062 Z M 80.890625 87.617188 C 76.789062 89.199219 74.015625 92.5625 72.113281 94.652344 C 68.445312 98.675781 63.597656 96.746094 63.078125 92.976562 C 62.535156 88.953125 64.578125 86.757812 65.460938 82.253906 C 66.265625 78.140625 65.367188 71.8125 67.257812 71.136719 C 68.484375 78.441406 75.867188 75.371094 77.546875 73.378906 C 80.289062 73.378906 80.515625 74.304688 81.128906 76.867188 C 81.515625 78.472656 82.039062 79.820312 83.539062 81.410156 C 85.277344 83.273438 84.746094 86.128906 80.890625 87.617188 Z M 47.558594 33.425781 C 44.847656 33.425781 42.816406 31.621094 41.167969 30.21875 C 40.320312 29.507812 41.375 28.191406 42.222656 28.910156 C 43.832031 30.277344 45.460938 31.722656 47.558594 31.722656 C 50.085938 31.722656 52.316406 29.558594 55.335938 28.367188 C 56.367188 27.960938 56.953125 29.554688 55.933594 29.957031 C 53 31.113281 50.648438 33.425781 47.558594 33.425781 Z M 47.558594 33.425781 "/>
</g>
</svg>
