<?xml version="1.0" encoding="UTF-8"?>
<svg xmlns="http://www.w3.org/2000/svg" xmlns:xlink="http://www.w3.org/1999/xlink" width="100px" height="100px" viewBox="0 0 100 100" version="1.1">
<g id="surface1">
<path style=" stroke:none;fill-rule:nonzero;fill:rgb(0%,0%,0%);fill-opacity:1;" d="M 50 0 C 26.992188 0 8.332031 18.3125 8.332031 40.894531 C 8.332031 63.832031 26.5625 79.511719 50 100 C 73.4375 79.511719 91.667969 63.832031 91.667969 40.894531 C 91.667969 18.3125 73.007812 0 50 0 Z M 50 75 C 31.585938 75 16.667969 60.074219 16.667969 41.667969 C 16.667969 23.257812 31.585938 8.332031 50 8.332031 C 68.414062 8.332031 83.332031 23.257812 83.332031 41.667969 C 83.332031 60.074219 68.414062 75 50 75 Z M 70.832031 35.0625 L 47.050781 58.507812 L 31.609375 43.394531 L 37.5 37.5 L 47.046875 46.722656 L 64.941406 29.167969 Z M 70.832031 35.0625 "/>
</g>
</svg>
