<?xml version="1.0" encoding="UTF-8"?>
<svg xmlns="http://www.w3.org/2000/svg" xmlns:xlink="http://www.w3.org/1999/xlink" width="100px" height="100px" viewBox="0 0 100 100" version="1.1">
<g id="surface1">
<path style=" stroke:none;fill-rule:nonzero;fill:rgb(0%,0%,0%);fill-opacity:1;" d="M 54.167969 33.332031 L 20.832031 33.332031 L 20.832031 29.167969 L 54.167969 29.167969 Z M 54.167969 41.667969 L 20.832031 41.667969 L 20.832031 37.5 L 54.167969 37.5 Z M 41.667969 50 L 20.832031 50 L 20.832031 45.832031 L 41.667969 45.832031 Z M 88.21875 100 L 57.4375 69.222656 C 51.65625 72.859375 44.835938 75 37.5 75 C 16.789062 75 0 58.210938 0 37.5 C 0 16.789062 16.789062 0 37.5 0 C 58.210938 0 75 16.789062 75 37.5 C 75 44.835938 72.859375 51.65625 69.222656 57.4375 L 100 88.21875 Z M 37.5 66.667969 C 53.578125 66.667969 66.667969 53.585938 66.667969 37.5 C 66.667969 21.414062 53.578125 8.332031 37.5 8.332031 C 21.421875 8.332031 8.332031 21.414062 8.332031 37.5 C 8.332031 53.585938 21.421875 66.667969 37.5 66.667969 Z M 37.5 66.667969 "/>
</g>
</svg>
