<?xml version="1.0" encoding="UTF-8"?>
<svg xmlns="http://www.w3.org/2000/svg" xmlns:xlink="http://www.w3.org/1999/xlink" width="100px" height="100px" viewBox="0 0 100 100" version="1.1">
<g id="surface1">
<path style=" stroke:none;fill-rule:evenodd;fill:rgb(0%,0%,0%);fill-opacity:1;" d="M 77.082031 87.707031 C 80.0625 87.707031 83.332031 90.066406 83.332031 93.957031 C 83.332031 96.9375 80.972656 100.207031 77.082031 100.207031 L 18.75 100.207031 C 14.878906 100.207031 12.5 96.976562 12.5 93.957031 C 12.5 90.960938 14.886719 87.707031 18.75 87.707031 Z M 76.710938 83.542969 L 18.816406 83.542969 C 11.527344 58.632812 48.066406 49.375 38.285156 40.078125 C 32.59375 34.671875 26.457031 46.515625 18.402344 43.886719 C 12.933594 42.109375 10.132812 31.882812 15.425781 29.375 C 25.246094 24.71875 24.074219 15.355469 28.394531 12.070312 C 33.257812 8.378906 38.171875 12.949219 41.34375 10.476562 C 43.34375 8.910156 41.285156 4.574219 38.125 0.207031 C 61.214844 2.5625 73.414062 16.265625 77.535156 29.375 L 70.21875 29.375 C 69.222656 29.375 68.136719 30.164062 68.136719 31.457031 C 68.136719 32.453125 68.925781 33.542969 70.21875 33.542969 L 78.585938 33.542969 C 78.976562 35.609375 79.167969 37.621094 79.167969 39.539062 L 79.117188 41.875 L 71.445312 41.875 C 70.152344 41.875 69.363281 42.960938 69.363281 43.957031 C 69.363281 44.953125 70.152344 46.042969 71.445312 46.042969 L 78.78125 46.042969 C 78.394531 49.15625 77.765625 51.898438 77.035156 54.375 L 68.75 54.375 C 67.453125 54.375 66.667969 55.460938 66.667969 56.457031 C 66.667969 57.453125 67.453125 58.542969 68.75 58.542969 L 75.628906 58.542969 C 71.96875 68.390625 67.914062 73.828125 76.710938 83.542969 Z M 34.316406 16.875 C 36.074219 16.875 37.5 18.15625 37.5 19.722656 C 37.5 21.296875 36.074219 22.574219 34.316406 22.574219 C 32.5625 22.574219 31.136719 21.296875 31.136719 19.722656 C 31.136719 18.15625 32.5625 16.875 34.316406 16.875 Z M 34.316406 16.875 "/>
</g>
</svg>
