<?xml version="1.0" encoding="UTF-8"?>
<svg xmlns="http://www.w3.org/2000/svg" xmlns:xlink="http://www.w3.org/1999/xlink" width="100px" height="100px" viewBox="0 0 100 100" version="1.1">
<g id="surface1">
<path style=" stroke:none;fill-rule:nonzero;fill:rgb(0%,0%,0%);fill-opacity:1;" d="M 50.007812 8.355469 C 73 8.355469 91.667969 27.023438 91.667969 50.007812 C 91.667969 73 73 91.667969 50.007812 91.667969 C 27.023438 91.667969 8.355469 73 8.355469 50.007812 C 8.355469 27.023438 27.023438 8.355469 50.007812 8.355469 Z M 70.832031 63.542969 C 70.832031 61.816406 69.433594 60.417969 67.707031 60.417969 L 32.292969 60.417969 C 30.566406 60.417969 29.167969 61.816406 29.167969 63.542969 C 29.167969 65.265625 30.566406 66.667969 32.292969 66.667969 L 67.707031 66.667969 C 69.433594 66.667969 70.832031 65.265625 70.832031 63.542969 Z M 70.832031 50.007812 C 70.832031 48.285156 69.433594 46.882812 67.707031 46.882812 L 32.292969 46.882812 C 30.566406 46.882812 29.167969 48.285156 29.167969 50.007812 C 29.167969 51.734375 30.566406 53.132812 32.292969 53.132812 L 67.707031 53.132812 C 69.433594 53.132812 70.832031 51.734375 70.832031 50.007812 Z M 70.832031 36.457031 C 70.832031 34.734375 69.433594 33.332031 67.707031 33.332031 L 32.292969 33.332031 C 30.566406 33.332031 29.167969 34.734375 29.167969 36.457031 C 29.167969 38.183594 30.566406 39.582031 32.292969 39.582031 L 67.707031 39.582031 C 69.433594 39.582031 70.832031 38.183594 70.832031 36.457031 Z M 70.832031 36.457031 "/>
</g>
</svg>
