<?xml version="1.0" encoding="UTF-8"?>
<svg xmlns="http://www.w3.org/2000/svg" xmlns:xlink="http://www.w3.org/1999/xlink" width="100px" height="100px" viewBox="0 0 100 100" version="1.1">
<g id="surface1">
<path style=" stroke:none;fill-rule:evenodd;fill:rgb(0%,0%,0%);fill-opacity:1;" d="M 58.914062 10.960938 L 71.695312 4.953125 L 74.96875 18.691406 L 89.097656 18.824219 L 86.085938 32.625 L 98.746094 38.875 L 90.046875 50.003906 L 98.746094 61.128906 L 86.085938 67.375 L 89.097656 81.175781 L 74.96875 81.3125 L 71.695312 95.046875 L 58.914062 89.039062 L 50 100 L 41.089844 89.039062 L 28.308594 95.046875 L 25.03125 81.3125 L 10.90625 81.175781 L 13.914062 67.375 L 1.253906 61.128906 L 9.953125 50.003906 L 1.253906 38.875 L 13.914062 32.625 L 10.90625 18.824219 L 25.03125 18.691406 L 28.308594 4.953125 L 41.089844 10.960938 L 50 0 Z M 43.320312 20.71875 L 33.726562 16.214844 L 31.265625 26.519531 L 20.671875 26.621094 L 22.933594 36.96875 L 13.4375 41.65625 L 19.964844 50.003906 L 13.4375 58.34375 L 22.933594 63.03125 L 20.671875 73.382812 L 31.265625 73.484375 L 33.726562 83.785156 L 43.320312 79.28125 L 50 87.5 L 56.683594 79.28125 L 66.273438 83.785156 L 68.726562 73.484375 L 79.328125 73.382812 L 77.066406 63.03125 L 86.5625 58.34375 L 80.042969 50.003906 L 86.5625 41.65625 L 77.066406 36.96875 L 79.328125 26.621094 L 68.726562 26.519531 L 66.273438 16.214844 L 56.683594 20.71875 L 50 12.5 Z M 50 60.417969 C 52.875 60.417969 55.207031 62.75 55.207031 65.625 C 55.207031 68.5 52.875 70.832031 50 70.832031 C 47.125 70.832031 44.792969 68.5 44.792969 65.625 C 44.792969 62.75 47.125 60.417969 50 60.417969 Z M 54.167969 56.46875 L 45.832031 56.46875 L 45.832031 29.167969 L 54.167969 29.167969 Z M 54.167969 56.46875 "/>
</g>
</svg>
