<?xml version="1.0" encoding="UTF-8"?>
<svg xmlns="http://www.w3.org/2000/svg" xmlns:xlink="http://www.w3.org/1999/xlink" width="100px" height="100px" viewBox="0 0 100 100" version="1.1">
<g id="surface1">
<path style=" stroke:none;fill-rule:evenodd;fill:rgb(0%,0%,0%);fill-opacity:1;" d="M 50 0 L 41.089844 10.960938 L 28.308594 4.953125 L 25.03125 18.691406 L 10.90625 18.824219 L 13.914062 32.625 L 1.253906 38.875 L 9.953125 50.003906 L 1.253906 61.128906 L 13.914062 67.375 L 10.90625 81.175781 L 25.03125 81.3125 L 28.308594 95.046875 L 41.089844 89.039062 L 50 100 L 58.914062 89.039062 L 71.695312 95.046875 L 74.96875 81.3125 L 89.097656 81.175781 L 86.085938 67.375 L 98.746094 61.128906 L 90.046875 50.003906 L 98.746094 38.875 L 86.085938 32.625 L 89.097656 18.824219 L 74.96875 18.691406 L 71.695312 4.953125 L 58.914062 10.960938 Z M 50 64.582031 C 52.875 64.582031 55.207031 66.917969 55.207031 69.792969 C 55.207031 72.664062 52.875 75 50 75 C 47.125 75 44.792969 72.664062 44.792969 69.792969 C 44.792969 66.917969 47.125 64.582031 50 64.582031 Z M 54.167969 60.257812 L 54.167969 29.167969 L 45.832031 29.167969 L 45.832031 60.257812 Z M 54.167969 60.257812 "/>
</g>
</svg>
