<?xml version="1.0" encoding="UTF-8"?>
<svg xmlns="http://www.w3.org/2000/svg" xmlns:xlink="http://www.w3.org/1999/xlink" width="100px" height="100px" viewBox="0 0 100 100" version="1.1">
<g id="surface1">
<path style=" stroke:none;fill-rule:evenodd;fill:rgb(0%,0%,0%);fill-opacity:1;" d="M 70.761719 8.332031 L 76.621094 17.121094 C 78.167969 19.441406 80.765625 20.832031 83.554688 20.832031 L 99.929688 20.832031 L 99.929688 91.667969 L -0.0703125 91.667969 L -0.0703125 20.832031 L 24.640625 20.832031 C 27.425781 20.832031 30.023438 19.441406 31.570312 17.121094 L 37.429688 8.332031 Z M 83.554688 25 C 79.363281 25 75.476562 22.917969 73.15625 19.429688 L 68.53125 12.5 L 39.65625 12.5 L 35.035156 19.433594 C 32.71875 22.917969 28.828125 25 24.640625 25 L 4.097656 25 L 4.097656 87.5 L 95.761719 87.5 L 95.761719 25 Z M 54.167969 29.167969 C 67.960938 29.167969 79.167969 40.371094 79.167969 54.167969 C 79.167969 67.960938 67.960938 79.167969 54.167969 79.167969 C 40.371094 79.167969 29.167969 67.960938 29.167969 54.167969 C 29.167969 40.371094 40.371094 29.167969 54.167969 29.167969 Z M 54.167969 33.332031 C 65.667969 33.332031 75 42.664062 75 54.167969 C 75 65.667969 65.667969 75 54.167969 75 C 42.664062 75 33.332031 65.667969 33.332031 54.167969 C 33.332031 42.664062 42.664062 33.332031 54.167969 33.332031 Z M 54.167969 41.667969 C 61.066406 41.667969 66.667969 47.265625 66.667969 54.167969 C 66.667969 61.066406 61.066406 66.667969 54.167969 66.667969 C 47.265625 66.667969 41.667969 61.066406 41.667969 54.167969 C 41.667969 47.265625 47.265625 41.667969 54.167969 41.667969 Z M 54.167969 45.832031 C 58.765625 45.832031 62.5 49.566406 62.5 54.167969 C 62.5 58.765625 58.765625 62.5 54.167969 62.5 C 49.566406 62.5 45.832031 58.765625 45.832031 54.167969 C 45.832031 49.566406 49.566406 45.832031 54.167969 45.832031 Z M 20.832031 37.5 C 20.832031 35.199219 18.96875 33.332031 16.667969 33.332031 C 14.363281 33.332031 12.5 35.199219 12.5 37.5 C 12.5 39.800781 14.363281 41.667969 16.667969 41.667969 C 18.96875 41.667969 20.832031 39.800781 20.832031 37.5 Z M 8.332031 12.5 L 20.835938 12.5 L 20.835938 16.667969 L 8.332031 16.667969 Z M 8.332031 12.5 "/>
</g>
</svg>
