<?xml version="1.0" encoding="UTF-8"?>
<svg xmlns="http://www.w3.org/2000/svg" xmlns:xlink="http://www.w3.org/1999/xlink" width="100px" height="100px" viewBox="0 0 100 100" version="1.1">
<g id="surface1">
<path style=" stroke:none;fill-rule:nonzero;fill:rgb(0%,0%,0%);fill-opacity:1;" d="M 20.832031 20.832031 L 8.332031 20.832031 L 8.332031 16.667969 L 20.832031 16.667969 Z M 54.167969 41.667969 C 47.273438 41.667969 41.667969 47.273438 41.667969 54.167969 C 41.667969 61.058594 47.273438 66.667969 54.167969 66.667969 C 61.058594 66.667969 66.667969 61.058594 66.667969 54.167969 C 66.667969 47.273438 61.058594 41.667969 54.167969 41.667969 Z M 100 25 L 100 87.5 L 0 87.5 L 0 25 L 24.710938 25 C 27.496094 25 30.09375 23.609375 31.640625 21.285156 L 37.5 12.5 L 70.832031 12.5 L 76.691406 21.285156 C 78.238281 23.609375 80.835938 25 83.625 25 Z M 20.832031 41.667969 C 20.832031 39.367188 18.96875 37.5 16.667969 37.5 C 14.363281 37.5 12.5 39.367188 12.5 41.667969 C 12.5 43.96875 14.363281 45.832031 16.667969 45.832031 C 18.96875 45.832031 20.832031 43.96875 20.832031 41.667969 Z M 75 54.167969 C 75 42.664062 65.671875 33.332031 54.167969 33.332031 C 42.664062 33.332031 33.332031 42.664062 33.332031 54.167969 C 33.332031 65.671875 42.664062 75 54.167969 75 C 65.671875 75 75 65.671875 75 54.167969 Z M 75 54.167969 "/>
</g>
</svg>
