<?xml version="1.0" encoding="UTF-8"?>
<svg xmlns="http://www.w3.org/2000/svg" xmlns:xlink="http://www.w3.org/1999/xlink" width="100px" height="100px" viewBox="0 0 100 100" version="1.1">
<g id="surface1">
<path style=" stroke:none;fill-rule:nonzero;fill:rgb(0%,0%,0%);fill-opacity:1;" d="M 75.300781 67.824219 C 71.125 66.859375 67.234375 66.011719 69.117188 62.453125 C 74.859375 51.625 70.640625 45.832031 64.582031 45.832031 C 58.40625 45.832031 54.296875 51.84375 60.046875 62.453125 C 61.988281 66.03125 57.949219 66.878906 53.867188 67.824219 C 49.683594 68.792969 50.003906 70.996094 50.003906 75 L 79.164062 75 C 79.164062 70.996094 79.484375 68.792969 75.300781 67.824219 Z M 33.332031 29.246094 L 33.332031 100 L 95.832031 100 L 95.832031 29.246094 Z M 87.5 83.332031 L 41.667969 83.332031 L 41.667969 37.5 L 87.5 37.5 Z M 25 78.617188 L 4.167969 21.375 L 62.894531 0 L 70.507812 20.832031 L 61.640625 20.832031 L 57.890625 10.601562 L 14.640625 26.34375 L 25 54.8125 Z M 25 78.617188 "/>
</g>
</svg>
