<?xml version="1.0" encoding="UTF-8"?>
<svg xmlns="http://www.w3.org/2000/svg" xmlns:xlink="http://www.w3.org/1999/xlink" width="100px" height="100px" viewBox="0 0 100 100" version="1.1">
<g id="surface1">
<path style=" stroke:none;fill-rule:nonzero;fill:rgb(0%,0%,0%);fill-opacity:1;" d="M 47.195312 61.910156 C 46.292969 59.210938 47.324219 56.359375 49.675781 54.6875 C 50.859375 53.84375 52.210938 53.414062 53.558594 53.414062 C 54.878906 53.414062 56.195312 53.832031 57.316406 54.695312 C 56.441406 51.761719 53.773438 50 51 50 C 49.699219 50 48.375 50.386719 47.203125 51.226562 C 43.53125 53.84375 43.542969 59.300781 47.195312 61.910156 Z M 58.191406 88.71875 C 61.109375 89.699219 70.140625 92.199219 80.609375 100 L 100 86.171875 C 94.964844 79.121094 96.355469 74.1875 91.355469 67.179688 C 89.421875 64.460938 87.664062 62.664062 84.835938 62.664062 C 84.085938 62.664062 83.53125 62.777344 82.445312 62.976562 L 84.203125 65.441406 C 84.644531 66.058594 84.5 66.921875 83.882812 67.363281 C 83.261719 67.804688 82.40625 67.660156 81.960938 67.039062 L 80.390625 64.839844 C 79.9375 64.203125 79.203125 63.835938 78.4375 63.835938 C 78.15625 63.835938 78.1875 63.808594 74.363281 64.691406 L 76.5 67.683594 C 76.9375 68.300781 76.796875 69.15625 76.179688 69.605469 C 75.5625 70.046875 74.703125 69.90625 74.257812 69.28125 L 72.40625 66.6875 C 71.953125 66.050781 71.21875 65.683594 70.460938 65.683594 C 70.117188 65.683594 70.183594 65.660156 66.253906 66.65625 L 68.515625 69.820312 C 68.953125 70.4375 68.808594 71.296875 68.191406 71.742188 C 67.578125 72.183594 66.714844 72.039062 66.273438 71.421875 L 57.117188 58.601562 C 55.914062 56.910156 53.558594 56.515625 51.867188 57.71875 C 50.175781 58.925781 49.78125 61.28125 50.984375 62.972656 L 64.511719 81.929688 C 60.890625 80.589844 55.277344 80 54.234375 83.761719 C 53.613281 86.003906 55.40625 87.789062 58.191406 88.71875 Z M 66.960938 14.878906 L 71.96875 8.207031 C 83.863281 16.488281 91.667969 30.242188 91.667969 45.832031 C 91.667969 49.183594 91.285156 52.441406 90.601562 55.589844 C 88.953125 54.847656 87.0625 54.328125 84.828125 54.328125 C 83.855469 54.328125 83.046875 54.429688 82.265625 54.554688 C 82.9375 51.75 83.332031 48.84375 83.332031 45.832031 C 83.332031 32.992188 76.839844 21.640625 66.960938 14.878906 Z M 37.5 41.667969 L 37.5 0 L 54.167969 0 L 54.167969 41.667969 Z M 48.171875 91.550781 L 45.832031 91.667969 C 20.523438 91.667969 0 71.144531 0 45.832031 C 0 30.207031 7.835938 16.421875 19.78125 8.148438 L 24.914062 14.722656 C 14.921875 21.46875 8.332031 32.894531 8.332031 45.832031 C 8.332031 66.507812 25.152344 83.332031 45.832031 83.332031 L 45.878906 83.332031 C 45.582031 86.050781 46.265625 89 48.171875 91.550781 Z M 48.171875 91.550781 "/>
</g>
</svg>
