<?xml version="1.0" encoding="UTF-8"?>
<svg xmlns="http://www.w3.org/2000/svg" xmlns:xlink="http://www.w3.org/1999/xlink" width="100px" height="100px" viewBox="0 0 100 100" version="1.1">
<g id="surface1">
<path style=" stroke:none;fill-rule:nonzero;fill:rgb(0%,0%,0%);fill-opacity:1;" d="M 79.550781 28.597656 C 73.285156 38.21875 72.140625 47.140625 72.546875 52.296875 C 98.09375 51.875 96.28125 79.167969 78.335938 79.167969 C 70.710938 79.167969 62.5 73.589844 62.5 61.355469 C 62.5 50.003906 68.382812 37 79.550781 28.597656 Z M 25.382812 28.597656 C 19.117188 38.21875 17.972656 47.140625 18.378906 52.296875 C 43.929688 51.875 42.113281 79.167969 24.171875 79.167969 C 16.546875 79.167969 8.332031 73.589844 8.332031 61.355469 C 8.332031 50.003906 14.214844 37 25.382812 28.597656 Z M 95.832031 12.5 C 70.382812 17.523438 54.167969 39.933594 54.167969 61.355469 C 54.167969 77.894531 65.773438 87.5 78.335938 87.5 C 89.234375 87.5 100 80.011719 100 66.753906 C 100 55.914062 92.0625 46.933594 81.683594 45.300781 C 82.585938 36.949219 90.703125 24.835938 99.933594 21.359375 Z M 41.667969 12.5 C 16.214844 17.523438 0 39.933594 0 61.355469 C 0 77.894531 11.609375 87.5 24.171875 87.5 C 35.066406 87.5 45.832031 80.011719 45.832031 66.753906 C 45.832031 55.914062 37.894531 46.933594 27.515625 45.300781 C 28.421875 36.949219 36.539062 24.835938 45.765625 21.359375 Z M 41.667969 12.5 "/>
</g>
</svg>
