<?xml version="1.0" encoding="UTF-8"?>
<svg xmlns="http://www.w3.org/2000/svg" xmlns:xlink="http://www.w3.org/1999/xlink" width="100px" height="100px" viewBox="0 0 100 100" version="1.1">
<g id="surface1">
<path style=" stroke:none;fill-rule:nonzero;fill:rgb(0%,0%,0%);fill-opacity:1;" d="M 54.167969 61.355469 C 54.167969 39.933594 70.382812 17.523438 95.832031 12.5 L 99.933594 21.359375 C 90.703125 24.835938 82.585938 36.949219 81.683594 45.300781 C 92.0625 46.933594 100 55.914062 100 66.753906 C 100 80.011719 89.234375 87.5 78.335938 87.5 C 65.773438 87.5 54.167969 77.894531 54.167969 61.355469 Z M 0 61.355469 C 0 39.933594 16.214844 17.523438 41.667969 12.5 L 45.765625 21.359375 C 36.539062 24.835938 28.421875 36.949219 27.515625 45.300781 C 37.894531 46.933594 45.832031 55.914062 45.832031 66.753906 C 45.832031 80.011719 35.066406 87.5 24.171875 87.5 C 11.609375 87.5 0 77.894531 0 61.355469 Z M 0 61.355469 "/>
</g>
</svg>
