<?xml version="1.0" encoding="UTF-8"?>
<svg xmlns="http://www.w3.org/2000/svg" xmlns:xlink="http://www.w3.org/1999/xlink" width="100px" height="100px" viewBox="0 0 100 100" version="1.1">
<g id="surface1">
<path style=" stroke:none;fill-rule:nonzero;fill:rgb(0%,0%,0%);fill-opacity:1;" d="M 64.847656 92.84375 L 50 95.832031 L 53 80.992188 Z M 55.941406 78.042969 L 67.796875 89.894531 L 100 57.6875 L 88.148438 45.832031 Z M 45.832031 37.5 L 58.316406 37.5 L 58.316406 16.667969 L 45.832031 16.667969 Z M 43.183594 87.5 L 8.332031 87.5 L 8.332031 12.5 L 20.832031 12.5 L 20.832031 50 L 70.832031 50 L 70.832031 12.5 L 71.550781 12.5 L 83.332031 24.289062 L 83.332031 39.058594 L 91.667969 30.730469 L 91.667969 20.832031 L 75 4.167969 L 0 4.167969 L 0 95.832031 L 41.46875 95.832031 Z M 29.167969 12.5 L 62.5 12.5 L 62.5 41.667969 L 29.167969 41.667969 Z M 29.167969 12.5 "/>
</g>
</svg>
