<?xml version="1.0" encoding="UTF-8"?>
<svg xmlns="http://www.w3.org/2000/svg" xmlns:xlink="http://www.w3.org/1999/xlink" width="100px" height="100px" viewBox="0 0 100 100" version="1.1">
<g id="surface1">
<path style=" stroke:none;fill-rule:nonzero;fill:rgb(0%,0%,0%);fill-opacity:1;" d="M 100 87.5 L 100 62.5 L 25 62.5 L 25 87.5 Z M 87.5 70.832031 C 89.804688 70.832031 91.667969 72.699219 91.667969 75 C 91.667969 77.300781 89.804688 79.167969 87.5 79.167969 C 85.199219 79.167969 83.332031 77.300781 83.332031 75 C 83.332031 72.699219 85.199219 70.832031 87.5 70.832031 Z M 54.976562 70.832031 L 60.289062 70.832031 L 56.6875 79.167969 L 51.378906 79.167969 Z M 46.054688 70.832031 L 51.367188 70.832031 L 47.769531 79.167969 L 42.457031 79.167969 Z M 36.929688 70.832031 L 42.242188 70.832031 L 38.644531 79.167969 L 33.332031 79.167969 Z M 16.667969 74.753906 C 7.28125 73.546875 0 65.613281 0 55.902344 C 0 46.519531 6.773438 38.734375 15.695312 37.128906 C 16.433594 23.402344 27.757812 12.5 41.667969 12.5 C 55.578125 12.5 66.898438 23.402344 67.636719 37.128906 C 75.992188 38.632812 82.390625 45.582031 83.171875 54.167969 L 74.878906 54.167969 C 73.714844 45.394531 63.738281 44.445312 59.671875 44.164062 C 60.160156 36.003906 57.359375 20.832031 41.667969 20.832031 C 23.171875 20.832031 23.503906 40.625 23.664062 44.164062 C 19.722656 44.007812 8.332031 45.582031 8.332031 55.902344 C 8.332031 61 11.898438 65.257812 16.667969 66.367188 Z M 16.667969 74.753906 "/>
</g>
</svg>
