<?xml version="1.0" encoding="UTF-8"?>
<svg xmlns="http://www.w3.org/2000/svg" xmlns:xlink="http://www.w3.org/1999/xlink" width="100px" height="100px" viewBox="0 0 100 100" version="1.1">
<g id="surface1">
<path style=" stroke:none;fill-rule:nonzero;fill:rgb(0%,0%,0%);fill-opacity:1;" d="M 50 0 C 22.386719 0 0 22.386719 0 50 C 0 77.613281 22.386719 100 50 100 C 77.613281 100 100 77.613281 100 50 C 100 22.386719 77.613281 0 50 0 Z M 64.582031 33.332031 C 68.03125 33.332031 70.832031 36.128906 70.832031 39.582031 C 70.832031 43.039062 68.03125 45.832031 64.582031 45.832031 C 61.132812 45.832031 58.332031 43.039062 58.332031 39.582031 C 58.332031 36.128906 61.132812 33.332031 64.582031 33.332031 Z M 35.417969 33.332031 C 38.867188 33.332031 41.667969 36.128906 41.667969 39.582031 C 41.667969 43.039062 38.867188 45.832031 35.417969 45.832031 C 31.96875 45.832031 29.167969 43.039062 29.167969 39.582031 C 29.167969 36.128906 31.96875 33.332031 35.417969 33.332031 Z M 50.003906 75 C 38.332031 75 29.695312 67.308594 25 60.140625 L 27.054688 58.089844 C 33.355469 63.066406 40.277344 66.132812 50.003906 66.132812 C 59.722656 66.132812 66.644531 63.066406 72.945312 58.089844 L 75 60.140625 C 70.304688 67.308594 61.671875 75 50.003906 75 Z M 50.003906 75 "/>
</g>
</svg>
