<?xml version="1.0" encoding="UTF-8"?>
<svg xmlns="http://www.w3.org/2000/svg" xmlns:xlink="http://www.w3.org/1999/xlink" width="100px" height="100px" viewBox="0 0 100 100" version="1.1">
<g id="surface1">
<path style=" stroke:none;fill-rule:evenodd;fill:rgb(0%,0%,0%);fill-opacity:1;" d="M 50 0 C 22.386719 0 0 22.386719 0 50 C 0 77.613281 22.386719 100 50 100 C 77.613281 100 100 77.613281 100 50 C 100 22.386719 77.613281 0 50 0 Z M 50 8.332031 C 72.976562 8.332031 91.667969 27.023438 91.667969 50 C 91.667969 72.976562 72.976562 91.667969 50 91.667969 C 27.023438 91.667969 8.332031 72.976562 8.332031 50 C 8.332031 27.023438 27.023438 8.332031 50 8.332031 Z M 50 20.832031 C 33.890625 20.832031 20.832031 33.890625 20.832031 50 C 20.832031 66.109375 33.890625 79.167969 50 79.167969 C 66.109375 79.167969 79.167969 66.109375 79.167969 50 C 79.167969 33.890625 66.109375 20.832031 50 20.832031 Z M 63.375 62.898438 C 62.855469 63.761719 61.734375 64.027344 60.875 63.507812 C 54.027344 59.320312 45.40625 58.375 35.253906 60.695312 C 34.273438 60.914062 33.300781 60.304688 33.078125 59.328125 C 32.855469 58.351562 33.460938 57.375 34.445312 57.152344 C 45.554688 54.613281 55.085938 55.703125 62.777344 60.398438 C 63.628906 60.925781 63.898438 62.046875 63.375 62.898438 Z M 66.945312 54.957031 C 66.285156 56.03125 64.886719 56.367188 63.816406 55.707031 C 55.980469 50.890625 44.027344 49.496094 34.753906 52.308594 C 33.550781 52.675781 32.28125 51.996094 31.917969 50.796875 C 31.554688 49.59375 32.234375 48.324219 33.433594 47.960938 C 44.027344 44.746094 57.195312 46.296875 66.195312 51.832031 C 67.265625 52.492188 67.605469 53.890625 66.945312 54.957031 Z M 67.253906 46.691406 C 57.847656 41.109375 42.339844 40.589844 33.367188 43.316406 C 31.929688 43.753906 30.40625 42.941406 29.964844 41.5 C 29.527344 40.058594 30.34375 38.53125 31.78125 38.09375 C 42.085938 34.96875 59.210938 35.578125 70.035156 42 C 71.332031 42.765625 71.757812 44.441406 70.992188 45.738281 C 70.21875 47.035156 68.546875 47.457031 67.253906 46.691406 Z M 67.253906 46.691406 "/>
</g>
</svg>
