<?xml version="1.0" encoding="UTF-8"?>
<svg xmlns="http://www.w3.org/2000/svg" xmlns:xlink="http://www.w3.org/1999/xlink" width="100px" height="100px" viewBox="0 0 100 100" version="1.1">
<g id="surface1">
<path style=" stroke:none;fill-rule:nonzero;fill:rgb(0%,0%,0%);fill-opacity:1;" d="M 43.550781 8.332031 L 78.011719 42.769531 L 55.382812 64.765625 L 20.832031 30.125 L 20.832031 8.332031 Z M 47 0 L 12.5 0 L 12.5 33.574219 L 55.296875 76.476562 L 89.886719 42.847656 Z M 39.835938 27.328125 C 37.394531 29.765625 33.4375 29.765625 31 27.328125 C 28.558594 24.894531 28.558594 20.941406 31 18.503906 C 33.4375 16.066406 37.394531 16.066406 39.835938 18.503906 C 42.273438 20.9375 42.273438 24.890625 39.835938 27.328125 Z M 85.707031 58.191406 L 91.667969 64.0625 L 55.464844 100 L 12.5 57.011719 L 12.5 45.207031 L 55.621094 88.089844 Z M 85.707031 58.191406 "/>
</g>
</svg>
