<?xml version="1.0" encoding="UTF-8" standalone="no"?>
<svg
   xmlns:dc="http://purl.org/dc/elements/1.1/"
   xmlns:cc="http://creativecommons.org/ns#"
   xmlns:rdf="http://www.w3.org/1999/02/22-rdf-syntax-ns#"
   xmlns:svg="http://www.w3.org/2000/svg"
   xmlns="http://www.w3.org/2000/svg"
   xmlns:sodipodi="http://sodipodi.sourceforge.net/DTD/sodipodi-0.dtd"
   xmlns:inkscape="http://www.inkscape.org/namespaces/inkscape"
   width="24"
   height="24"
   viewBox="0 0 24 24"
   version="1.1"
   id="svg5"
   sodipodi:docname="task-list-square-lined_w24.svg"
   inkscape:version="1.0.2 (e86c870879, 2021-01-15)">
  <metadata
     id="metadata11">
    <rdf:RDF>
      <cc:Work
         rdf:about="">
        <dc:format>image/svg+xml</dc:format>
        <dc:type
           rdf:resource="http://purl.org/dc/dcmitype/StillImage" />
        <dc:title></dc:title>
      </cc:Work>
    </rdf:RDF>
  </metadata>
  <defs
     id="defs9" />
  <sodipodi:namedview
     pagecolor="#ffffff"
     bordercolor="#666666"
     borderopacity="1"
     objecttolerance="10"
     gridtolerance="10"
     guidetolerance="10"
     inkscape:pageopacity="0"
     inkscape:pageshadow="2"
     inkscape:window-width="1920"
     inkscape:window-height="1053"
     id="namedview7"
     showgrid="false"
     fit-margin-top="0"
     fit-margin-left="0"
     fit-margin-right="0"
     fit-margin-bottom="0"
     inkscape:zoom="8.62"
     inkscape:cx="37.5"
     inkscape:cy="37.5"
     inkscape:window-x="0"
     inkscape:window-y="27"
     inkscape:window-maximized="1"
     inkscape:current-layer="svg5" />
  <g
     id="surface1"
     transform="matrix(0.32,0,0,0.32,-4,-4)">
    <path
       style="fill:#000000;fill-opacity:1;fill-rule:evenodd;stroke:none"
       d="M 87.5,16.667969 C 87.5,14.675781 85.921875,12.5 83.332031,12.5 H 16.667969 C 14.085938,12.5 12.5,14.664062 12.5,16.667969 V 83.332031 C 12.5,85.921875 14.664062,87.5 16.667969,87.5 H 83.332031 C 85.324219,87.5 87.5,85.921875 87.5,83.332031 Z M 18.75,18.75 h 62.5 v 62.5 H 18.75 Z M 75,63.542969 c 0,-1.726563 -1.398438,-3.125 -3.125,-3.125 h -18.75 c -1.726562,0 -3.125,1.398437 -3.125,3.125 0,1.722656 1.398438,3.125 3.125,3.125 h 18.75 c 1.726562,0 3.125,-1.402344 3.125,-3.125 z m -49.050781,-2.238281 5.207031,4.640624 c 0.542969,0.484376 1.222656,0.722657 1.898438,0.722657 0.769531,0 1.539062,-0.3125 2.097656,-0.925781 l 8.816406,-9.640626 c 0.5,-0.542968 0.75,-1.230468 0.75,-1.910156 0,-1.5625 -1.265625,-2.839844 -2.851562,-2.839844 -0.769532,0 -1.53125,0.304688 -2.101563,0.917969 L 32.847656,59.835938 29.742188,57.0625 C 29.195312,56.578125 28.519531,56.34375 27.847656,56.34375 26.265625,56.34375 25,57.621094 25,59.183594 c 0,0.78125 0.320312,1.558594 0.949219,2.121094 z M 75,50.007812 c 0,-1.722656 -1.398438,-3.125 -3.125,-3.125 h -18.75 c -1.726562,0 -3.125,1.402344 -3.125,3.125 0,1.726563 1.398438,3.125 3.125,3.125 h 18.75 c 1.726562,0 3.125,-1.398437 3.125,-3.125 z m -49.050781,-6.71875 5.207031,4.640626 c 0.542969,0.484374 1.222656,0.71875 1.898438,0.71875 0.769531,0 1.539062,-0.304688 2.097656,-0.917969 l 8.816406,-9.640625 c 0.5,-0.542969 0.75,-1.230469 0.75,-1.914063 0,-1.558593 -1.265625,-2.84375 -2.851562,-2.84375 -0.769532,0 -1.53125,0.308594 -2.101563,0.921875 l -6.917969,7.5625 -3.105468,-2.765625 C 29.195312,38.566406 28.519531,38.328125 27.847656,38.328125 26.265625,38.328125 25,39.605469 25,41.171875 c 0,0.777344 0.320312,1.558594 0.949219,2.117187 z M 75,36.457031 c 0,-1.722656 -1.398438,-3.125 -3.125,-3.125 h -18.75 c -1.726562,0 -3.125,1.402344 -3.125,3.125 0,1.726563 1.398438,3.125 3.125,3.125 h 18.75 c 1.726562,0 3.125,-1.398437 3.125,-3.125 z m 0,0"
       id="path2" />
  </g>
</svg>
