<?xml version="1.0" encoding="UTF-8"?>
<svg xmlns="http://www.w3.org/2000/svg" xmlns:xlink="http://www.w3.org/1999/xlink" width="100px" height="100px" viewBox="0 0 100 100" version="1.1">
<g id="surface1">
<path style=" stroke:none;fill-rule:evenodd;fill:rgb(0%,0%,0%);fill-opacity:1;" d="M 87.5 16.667969 C 87.5 14.675781 85.921875 12.5 83.332031 12.5 L 16.667969 12.5 C 14.085938 12.5 12.5 14.664062 12.5 16.667969 L 12.5 83.332031 C 12.5 85.921875 14.664062 87.5 16.667969 87.5 L 83.332031 87.5 C 85.324219 87.5 87.5 85.921875 87.5 83.332031 Z M 18.75 18.75 L 81.25 18.75 L 81.25 81.25 L 18.75 81.25 Z M 75 63.542969 C 75 61.816406 73.601562 60.417969 71.875 60.417969 L 53.125 60.417969 C 51.398438 60.417969 50 61.816406 50 63.542969 C 50 65.265625 51.398438 66.667969 53.125 66.667969 L 71.875 66.667969 C 73.601562 66.667969 75 65.265625 75 63.542969 Z M 25.949219 61.304688 L 31.15625 65.945312 C 31.699219 66.429688 32.378906 66.667969 33.054688 66.667969 C 33.824219 66.667969 34.59375 66.355469 35.152344 65.742188 L 43.96875 56.101562 C 44.46875 55.558594 44.71875 54.871094 44.71875 54.191406 C 44.71875 52.628906 43.453125 51.351562 41.867188 51.351562 C 41.097656 51.351562 40.335938 51.65625 39.765625 52.269531 L 32.847656 59.835938 L 29.742188 57.0625 C 29.195312 56.578125 28.519531 56.34375 27.847656 56.34375 C 26.265625 56.34375 25 57.621094 25 59.183594 C 25 59.964844 25.320312 60.742188 25.949219 61.304688 Z M 75 50.007812 C 75 48.285156 73.601562 46.882812 71.875 46.882812 L 53.125 46.882812 C 51.398438 46.882812 50 48.285156 50 50.007812 C 50 51.734375 51.398438 53.132812 53.125 53.132812 L 71.875 53.132812 C 73.601562 53.132812 75 51.734375 75 50.007812 Z M 25.949219 43.289062 L 31.15625 47.929688 C 31.699219 48.414062 32.378906 48.648438 33.054688 48.648438 C 33.824219 48.648438 34.59375 48.34375 35.152344 47.730469 L 43.96875 38.089844 C 44.46875 37.546875 44.71875 36.859375 44.71875 36.175781 C 44.71875 34.617188 43.453125 33.332031 41.867188 33.332031 C 41.097656 33.332031 40.335938 33.640625 39.765625 34.253906 L 32.847656 41.816406 L 29.742188 39.050781 C 29.195312 38.566406 28.519531 38.328125 27.847656 38.328125 C 26.265625 38.328125 25 39.605469 25 41.171875 C 25 41.949219 25.320312 42.730469 25.949219 43.289062 Z M 75 36.457031 C 75 34.734375 73.601562 33.332031 71.875 33.332031 L 53.125 33.332031 C 51.398438 33.332031 50 34.734375 50 36.457031 C 50 38.183594 51.398438 39.582031 53.125 39.582031 L 71.875 39.582031 C 73.601562 39.582031 75 38.183594 75 36.457031 Z M 75 36.457031 "/>
</g>
</svg>
