<?xml version="1.0" encoding="UTF-8"?>
<svg xmlns="http://www.w3.org/2000/svg" xmlns:xlink="http://www.w3.org/1999/xlink" width="100px" height="100px" viewBox="0 0 100 100" version="1.1">
<g id="surface1">
<path style=" stroke:none;fill-rule:nonzero;fill:rgb(0%,0%,0%);fill-opacity:1;" d="M 87.5 16.667969 C 87.5 14.675781 85.921875 12.5 83.332031 12.5 L 16.667969 12.5 C 14.085938 12.5 12.5 14.664062 12.5 16.667969 L 12.5 83.332031 C 12.5 85.921875 14.664062 87.5 16.667969 87.5 L 83.332031 87.5 C 85.324219 87.5 87.5 85.921875 87.5 83.332031 Z M 18.75 18.75 L 81.25 18.75 L 81.25 81.25 L 18.75 81.25 Z M 30.492188 43.1875 L 41.46875 49.945312 L 30.464844 56.800781 C 29.605469 57.40625 29.140625 58.375 29.140625 59.351562 C 29.140625 61.859375 31.984375 63.378906 34.066406 61.910156 L 48.695312 52.503906 C 49.523438 51.917969 50.023438 50.96875 50.023438 49.945312 C 50.023438 48.929688 49.523438 47.976562 48.695312 47.390625 L 34.09375 38.078125 C 32.015625 36.621094 29.167969 38.117188 29.167969 40.628906 C 29.167969 41.609375 29.628906 42.578125 30.492188 43.1875 Z M 70.816406 59.328125 C 70.816406 57.601562 69.417969 56.203125 67.691406 56.203125 L 53.109375 56.203125 C 51.386719 56.203125 49.984375 57.601562 49.984375 59.328125 C 49.984375 61.050781 51.386719 62.453125 53.109375 62.453125 L 67.691406 62.453125 C 69.417969 62.453125 70.816406 61.050781 70.816406 59.328125 Z M 70.816406 59.328125 "/>
</g>
</svg>
