<?xml version="1.0" encoding="UTF-8"?>
<svg xmlns="http://www.w3.org/2000/svg" xmlns:xlink="http://www.w3.org/1999/xlink" width="100px" height="100px" viewBox="0 0 100 100" version="1.1">
<g id="surface1">
<path style=" stroke:none;fill-rule:nonzero;fill:rgb(0%,0%,0%);fill-opacity:1;" d="M 87.5 16.667969 C 87.5 14.675781 85.921875 12.5 83.332031 12.5 L 16.667969 12.5 C 14.085938 12.5 12.5 14.664062 12.5 16.667969 L 12.5 83.332031 C 12.5 85.921875 14.664062 87.5 16.667969 87.5 L 83.332031 87.5 C 85.324219 87.5 87.5 85.921875 87.5 83.332031 Z M 30.507812 43.1875 C 29.644531 42.578125 29.183594 41.609375 29.183594 40.628906 C 29.183594 38.117188 32.035156 36.621094 34.109375 38.078125 L 48.714844 47.390625 C 49.539062 47.976562 50.035156 48.929688 50.035156 49.945312 C 50.035156 50.96875 49.539062 51.917969 48.714844 52.503906 L 34.085938 61.910156 C 32 63.378906 29.15625 61.859375 29.15625 59.351562 C 29.15625 58.375 29.621094 57.40625 30.484375 56.800781 L 41.488281 49.945312 Z M 70.832031 59.328125 C 70.832031 61.050781 69.433594 62.453125 67.707031 62.453125 L 53.125 62.453125 C 51.402344 62.453125 50 61.050781 50 59.328125 C 50 57.601562 51.402344 56.203125 53.125 56.203125 L 67.707031 56.203125 C 69.433594 56.203125 70.832031 57.601562 70.832031 59.328125 Z M 70.832031 59.328125 "/>
</g>
</svg>
