<?xml version="1.0" encoding="UTF-8"?>
<svg xmlns="http://www.w3.org/2000/svg" xmlns:xlink="http://www.w3.org/1999/xlink" width="100px" height="100px" viewBox="0 0 100 100" version="1.1">
<g id="surface1">
<path style=" stroke:none;fill-rule:nonzero;fill:rgb(0%,0%,0%);fill-opacity:1;" d="M 86.3125 100 C 82.710938 100 79.183594 98.539062 76.636719 95.992188 L 31 50.359375 C 29.851562 49.214844 28.273438 48.558594 26.648438 48.558594 L 26.1875 48.574219 C 19.183594 49.109375 12.132812 46.570312 7.085938 41.527344 C 2.515625 36.945312 0 30.855469 0 24.371094 C 0 20.011719 0.984375 15.101562 2.976562 10.707031 L 18.851562 26.585938 C 20.667969 26.285156 22.882812 24.953125 24.703125 22.691406 C 25.882812 21.234375 26.484375 19.878906 26.644531 18.898438 L 10.703125 2.960938 C 15.105469 0.972656 19.953125 0 24.265625 0 C 30.65625 0 36.945312 2.503906 41.527344 7.09375 C 46.5625 12.128906 49.125 19.09375 48.570312 26.191406 C 48.441406 27.976562 49.09375 29.734375 50.359375 31.007812 L 95.992188 76.636719 C 98.574219 79.226562 100 82.664062 100 86.3125 C 100 93.859375 93.859375 100 86.3125 100 Z M 26.648438 40.238281 C 30.460938 40.238281 34.191406 41.78125 36.882812 44.480469 L 82.523438 90.109375 C 83.515625 91.109375 84.898438 91.679688 86.308594 91.679688 C 89.265625 91.679688 91.675781 89.273438 91.675781 86.316406 C 91.675781 84.882812 91.117188 83.539062 90.101562 82.523438 L 44.480469 36.890625 C 41.5 33.910156 39.964844 29.78125 40.277344 25.566406 C 40.640625 20.871094 38.953125 16.285156 35.648438 12.976562 C 33.589844 10.925781 31.070312 9.503906 28.320312 8.808594 L 34.527344 15.023438 C 35.4375 19.191406 35.046875 23.132812 31.179688 27.925781 C 27.003906 33.101562 21.628906 35.972656 15.011719 34.535156 L 8.808594 28.324219 C 9.503906 31.074219 10.925781 33.601562 12.976562 35.65625 C 16.292969 38.960938 20.863281 40.65625 25.546875 40.277344 Z M 33.585938 64.722656 L 14.144531 84.003906 C 13.191406 84.957031 12.046875 85.699219 10.855469 86.328125 L 8.441406 87.585938 L 4.167969 96.527344 L 7.636719 100 L 16.390625 95.542969 L 17.648438 93.125 C 18.273438 91.933594 19.09375 90.855469 20.035156 89.898438 L 39.476562 70.621094 Z M 63.375 32.234375 L 82.152344 13.484375 C 82.855469 12.777344 83.996094 12.789062 84.699219 13.484375 C 85.398438 14.195312 85.40625 15.328125 84.699219 16.03125 L 65.921875 34.78125 L 69.628906 38.492188 L 88.40625 19.742188 C 89.109375 19.039062 90.246094 19.039062 90.949219 19.746094 C 91.648438 20.445312 91.65625 21.585938 90.953125 22.28125 L 72.171875 41.03125 L 76.5 45.359375 L 96.363281 25.53125 C 98.785156 23.101562 100 19.925781 100 16.742188 C 100 13.542969 98.78125 10.335938 96.328125 7.886719 C 93.898438 5.449219 90.703125 4.234375 87.523438 4.234375 C 84.332031 4.234375 81.15625 5.453125 78.71875 7.886719 L 58.859375 27.71875 Z M 86.25 84.167969 C 85.101562 84.167969 84.167969 85.101562 84.167969 86.25 C 84.167969 87.398438 85.101562 88.332031 86.25 88.332031 C 87.398438 88.332031 88.332031 87.398438 88.332031 86.25 C 88.332031 85.101562 87.40625 84.167969 86.25 84.167969 Z M 86.25 84.167969 "/>
</g>
</svg>
