<?xml version="1.0" encoding="UTF-8"?>
<svg xmlns="http://www.w3.org/2000/svg" xmlns:xlink="http://www.w3.org/1999/xlink" width="100px" height="100px" viewBox="0 0 100 100" version="1.1">
<g id="surface1">
<path style=" stroke:none;fill-rule:nonzero;fill:rgb(0%,0%,0%);fill-opacity:1;" d="M 96.957031 82.261719 L 47.183594 32.492188 C 44.863281 30.171875 43.675781 26.945312 43.921875 23.679688 C 44.398438 17.492188 42.273438 11.140625 37.546875 6.402344 C 33.257812 2.121094 27.648438 0 22.039062 0 C 19.925781 0 17.808594 0.300781 15.765625 0.902344 L 28.976562 14.109375 C 30.40625 20.730469 20.8125 30.433594 14.109375 28.96875 L 0.90625 15.761719 C 0.304688 17.8125 0 19.929688 0 22.050781 C 0 27.664062 2.125 33.261719 6.410156 37.554688 C 11.136719 42.289062 17.492188 44.410156 23.683594 43.929688 C 26.945312 43.679688 30.171875 44.871094 32.488281 47.191406 L 82.261719 96.957031 C 84.210938 98.910156 86.859375 100 89.609375 100 C 95.308594 100 100 95.382812 100 89.609375 C 100 86.949219 98.984375 84.292969 96.957031 82.261719 Z M 89.582031 93.75 C 87.28125 93.75 85.417969 91.882812 85.417969 89.582031 C 85.417969 87.28125 87.28125 85.417969 89.582031 85.417969 C 91.886719 85.417969 93.75 87.28125 93.75 89.582031 C 93.75 91.882812 91.886719 93.75 89.582031 93.75 Z M 56.519531 30.046875 L 78.714844 7.886719 C 81.148438 5.453125 84.332031 4.234375 87.523438 4.234375 C 90.703125 4.234375 93.890625 5.449219 96.324219 7.886719 C 98.78125 10.335938 100 13.542969 100 16.742188 C 100 19.925781 98.785156 23.109375 96.363281 25.53125 L 74.171875 47.691406 L 69.839844 43.363281 L 90.953125 22.28125 C 91.65625 21.585938 91.648438 20.445312 90.949219 19.746094 C 90.246094 19.039062 89.109375 19.039062 88.40625 19.742188 L 67.292969 40.816406 L 63.585938 37.109375 L 84.695312 16.03125 C 85.398438 15.324219 85.394531 14.191406 84.695312 13.484375 C 83.992188 12.78125 82.847656 12.777344 82.152344 13.484375 L 61.039062 34.558594 Z M 41.8125 68.296875 L 20.035156 89.898438 C 19.085938 90.855469 18.273438 91.933594 17.640625 93.125 L 16.386719 95.542969 L 7.636719 100 L 4.167969 96.527344 L 8.4375 87.582031 L 10.855469 86.324219 C 12.046875 85.699219 13.191406 84.953125 14.144531 84 L 35.925781 62.394531 Z M 41.8125 68.296875 "/>
</g>
</svg>
