<?xml version="1.0" encoding="UTF-8"?>
<svg xmlns="http://www.w3.org/2000/svg" xmlns:xlink="http://www.w3.org/1999/xlink" width="100px" height="100px" viewBox="0 0 100 100" version="1.1">
<g id="surface1">
<path style=" stroke:none;fill-rule:nonzero;fill:rgb(0%,0%,0%);fill-opacity:1;" d="M 50 0 C 22.386719 0 0 22.386719 0 50 C 0 77.613281 22.386719 100 50 100 C 77.613281 100 100 77.613281 100 50 C 100 22.386719 77.613281 0 50 0 Z M 82.304688 76.273438 C 81.214844 73.828125 79.015625 72.140625 74.507812 71.101562 C 64.953125 68.898438 56.058594 66.960938 60.371094 58.828125 C 73.472656 34.070312 63.84375 20.832031 50 20.832031 C 35.882812 20.832031 26.484375 34.578125 39.628906 58.828125 C 44.070312 67.011719 34.847656 68.941406 25.492188 71.101562 C 20.972656 72.140625 18.792969 73.84375 17.710938 76.292969 C 11.859375 69.109375 8.332031 59.964844 8.332031 50 C 8.332031 27.023438 27.023438 8.332031 50 8.332031 C 72.976562 8.332031 91.667969 27.023438 91.667969 50 C 91.667969 59.953125 88.148438 69.097656 82.304688 76.273438 Z M 82.304688 76.273438 "/>
</g>
</svg>
