<?xml version="1.0" encoding="UTF-8"?>
<svg xmlns="http://www.w3.org/2000/svg" xmlns:xlink="http://www.w3.org/1999/xlink" width="100px" height="100px" viewBox="0 0 100 100" version="1.1">
<g id="surface1">
<path style=" stroke:none;fill-rule:nonzero;fill:rgb(0%,0%,0%);fill-opacity:1;" d="M 50 22.171875 C 34.652344 22.171875 22.171875 34.65625 22.171875 50 C 22.171875 65.347656 34.652344 77.835938 50 77.835938 C 65.347656 77.835938 77.828125 65.347656 77.828125 50 C 77.828125 34.652344 65.347656 22.171875 50 22.171875 Z M 24.976562 50 C 24.976562 46.375 25.761719 42.929688 27.144531 39.816406 L 39.085938 72.523438 C 30.734375 68.460938 24.976562 59.90625 24.976562 50 Z M 50 75.023438 C 47.542969 75.023438 45.175781 74.664062 42.933594 74.003906 L 50.441406 52.1875 C 50.578125 52.5625 58.101562 73.265625 58.3125 73.601562 C 55.710938 74.515625 52.914062 75.023438 50 75.023438 Z M 53.449219 38.273438 C 54.953125 38.1875 56.3125 38.03125 56.3125 38.03125 C 57.664062 37.871094 57.503906 35.890625 56.15625 35.96875 C 50.84375 36.382812 48.273438 36.382812 42.894531 35.96875 C 41.550781 35.890625 41.386719 37.949219 42.738281 38.03125 C 42.738281 38.03125 44.015625 38.1875 45.359375 38.273438 L 49.261719 48.949219 L 43.785156 65.371094 L 34.664062 38.273438 C 36.175781 38.1875 37.535156 38.03125 37.535156 38.03125 C 38.878906 37.871094 38.71875 35.890625 37.375 35.96875 C 32.71875 36.332031 30.617188 36.304688 29.09375 36.253906 C 33.570312 29.460938 41.257812 24.976562 50 24.976562 C 56.515625 24.976562 62.445312 27.464844 66.898438 31.550781 C 64.1875 31.398438 62.371094 33.589844 62.371094 35.972656 C 62.371094 38.03125 63.5625 39.78125 64.828125 41.839844 C 65.785156 43.507812 66.890625 45.648438 66.890625 48.742188 C 66.890625 50.878906 66.070312 53.367188 64.992188 56.828125 L 62.492188 65.164062 Z M 71.957031 37.996094 C 73.914062 41.558594 75.023438 45.648438 75.023438 49.996094 C 75.023438 59.226562 70.015625 67.289062 62.578125 71.625 L 70.226562 49.527344 C 71.714844 45.789062 72.5 42.007812 71.957031 37.996094 Z M 50 0 C 22.386719 0 0 22.386719 0 50 C 0 77.613281 22.386719 100 50 100 C 77.613281 100 100 77.613281 100 50 C 100 22.386719 77.613281 0 50 0 Z M 50 79.167969 C 33.921875 79.167969 20.832031 66.085938 20.832031 50 C 20.832031 33.914062 33.921875 20.832031 50 20.832031 C 66.078125 20.832031 79.167969 33.914062 79.167969 50 C 79.167969 66.085938 66.078125 79.167969 50 79.167969 Z M 50 79.167969 "/>
</g>
</svg>
