<?xml version="1.0" encoding="UTF-8"?>
<svg xmlns="http://www.w3.org/2000/svg" xmlns:xlink="http://www.w3.org/1999/xlink" width="100px" height="100px" viewBox="0 0 100 100" version="1.1">
<g id="surface1">
<path style=" stroke:none;fill-rule:nonzero;fill:rgb(0%,0%,0%);fill-opacity:1;" d="M 50 8.332031 C 72.976562 8.332031 91.667969 27.023438 91.667969 50 C 91.667969 72.976562 72.976562 91.667969 50 91.667969 C 27.023438 91.667969 8.332031 72.976562 8.332031 50 C 8.332031 27.023438 27.023438 8.332031 50 8.332031 Z M 50 0 C 22.386719 0 0 22.386719 0 50 C 0 77.613281 22.386719 100 50 100 C 77.613281 100 100 77.613281 100 50 C 100 22.386719 77.613281 0 50 0 Z M 30.40625 41.273438 L 40.640625 69.304688 C 33.484375 65.824219 28.554688 58.492188 28.554688 50 C 28.554688 46.890625 29.226562 43.9375 30.40625 41.273438 Z M 64.480469 48.921875 C 64.480469 46.265625 63.523438 44.433594 62.707031 43.003906 C 61.625 41.238281 60.601562 39.742188 60.601562 37.972656 C 60.601562 35.933594 62.15625 34.054688 64.488281 34.183594 C 60.671875 30.6875 55.582031 28.554688 50 28.554688 C 42.507812 28.554688 35.914062 32.394531 32.078125 38.21875 C 33.382812 38.261719 35.183594 38.289062 39.175781 37.972656 C 40.328125 37.90625 40.464844 39.605469 39.316406 39.734375 C 39.316406 39.734375 38.148438 39.871094 36.851562 39.941406 L 44.664062 63.171875 L 49.363281 49.097656 L 46.019531 39.941406 L 43.773438 39.734375 C 42.613281 39.664062 42.753906 37.90625 43.902344 37.972656 C 48.511719 38.324219 50.71875 38.328125 55.269531 37.972656 C 56.429688 37.90625 56.566406 39.605469 55.40625 39.734375 C 55.40625 39.734375 54.246094 39.871094 52.953125 39.941406 L 60.699219 62.992188 L 62.847656 55.84375 C 63.773438 52.882812 64.480469 50.75 64.480469 48.921875 Z M 50.378906 51.875 L 43.941406 70.578125 C 45.863281 71.136719 47.890625 71.445312 50 71.445312 C 52.5 71.445312 54.894531 71.011719 57.121094 70.234375 C 56.945312 69.941406 50.496094 52.195312 50.378906 51.875 Z M 68.820312 39.710938 C 69.289062 43.148438 68.617188 46.398438 67.335938 49.601562 L 60.785156 68.539062 C 67.15625 64.820312 71.453125 57.914062 71.453125 50 C 71.445312 46.273438 70.496094 42.765625 68.820312 39.710938 Z M 75 50 C 75 63.785156 63.785156 75 50 75 C 36.214844 75 25 63.785156 25 50 C 25 36.214844 36.214844 25 50 25 C 63.785156 25 75 36.214844 75 50 Z M 73.855469 50 C 73.855469 36.851562 63.15625 26.144531 50 26.144531 C 36.84375 26.144531 26.144531 36.84375 26.144531 50 C 26.144531 63.15625 36.84375 73.859375 50 73.859375 C 63.15625 73.859375 73.855469 63.15625 73.855469 50 Z M 73.855469 50 "/>
</g>
</svg>
