<?xml version="1.0" encoding="UTF-8"?>
<svg xmlns="http://www.w3.org/2000/svg" xmlns:xlink="http://www.w3.org/1999/xlink" width="100px" height="100px" viewBox="0 0 100 100" version="1.1">
<g id="surface1">
<path style=" stroke:none;fill-rule:nonzero;fill:rgb(0%,0%,0%);fill-opacity:1;" d="M 50 0 C 22.386719 0 0 22.386719 0 50 C 0 77.613281 22.386719 100 50 100 C 77.613281 100 100 77.613281 100 50 C 100 22.386719 77.613281 0 50 0 Z M 68.503906 70.382812 C 59.746094 70.984375 40.238281 70.984375 31.492188 70.382812 C 22.007812 69.734375 20.902344 65.09375 20.832031 50 C 20.902344 34.878906 22.023438 30.265625 31.492188 29.617188 C 40.238281 29.015625 59.75 29.015625 68.503906 29.617188 C 77.992188 30.265625 79.09375 34.90625 79.167969 50 C 79.09375 65.121094 77.976562 69.734375 68.503906 70.382812 Z M 41.667969 40.242188 L 62.152344 49.984375 L 41.667969 59.757812 Z M 41.667969 40.242188 "/>
</g>
</svg>
