<?xml version="1.0" encoding="UTF-8"?>
<svg xmlns="http://www.w3.org/2000/svg" xmlns:xlink="http://www.w3.org/1999/xlink" width="100px" height="100px" viewBox="0 0 100 100" version="1.1">
<g id="surface1">
<path style=" stroke:none;fill-rule:nonzero;fill:rgb(0%,0%,0%);fill-opacity:1;" d="M 67.625 29.59375 C 59.28125 29.027344 40.699219 29.027344 32.371094 29.59375 C 23.351562 30.207031 22.292969 35.660156 22.222656 50 C 22.292969 64.316406 23.34375 69.792969 32.375 70.40625 C 40.703125 70.972656 59.289062 70.972656 67.628906 70.40625 C 76.648438 69.792969 77.710938 64.339844 77.78125 50 C 77.707031 35.683594 76.65625 30.207031 67.625 29.59375 Z M 41.667969 59.257812 L 41.667969 40.742188 L 61.574219 49.984375 Z M 50 8.332031 C 72.976562 8.332031 91.667969 27.023438 91.667969 50 C 91.667969 72.976562 72.976562 91.667969 50 91.667969 C 27.023438 91.667969 8.332031 72.976562 8.332031 50 C 8.332031 27.023438 27.023438 8.332031 50 8.332031 Z M 50 0 C 22.386719 0 0 22.386719 0 50 C 0 77.613281 22.386719 100 50 100 C 77.613281 100 100 77.613281 100 50 C 100 22.386719 77.613281 0 50 0 Z M 50 0 "/>
</g>
</svg>
